<?xml version="1.0" encoding="UTF-8"?>
<svg version="1.1" xmlns="http://www.w3.org/2000/svg" width="1024" height="1024">
<path d="M0 0 C7.35470418 2.8102312 12.83589695 9.62836647 18.12841797 15.23681641 C18.70092285 15.8354248 19.27342773 16.4340332 19.86328125 17.05078125 C20.37157471 17.59387939 20.87986816 18.13697754 21.40356445 18.6965332 C23.34196986 20.2792135 24.4903677 20.8631001 27 21 C29.04812295 19.72086921 29.04812295 19.72086921 30.93359375 17.73828125 C31.66513672 17.03123047 32.39667969 16.32417969 33.15039062 15.59570312 C33.90513672 14.84224609 34.65988281 14.08878906 35.4375 13.3125 C36.93469359 11.84872017 38.43335297 10.38643784 39.93359375 8.92578125 C40.6385498 8.23822754 41.34350586 7.55067383 42.06982422 6.84228516 C48.470337 0.73321996 52.88581473 -0.50704671 61.65625 -0.390625 C71.35376554 0.74226233 78.70028263 10.11530888 85 17 C86.97698481 20.95396963 86.57069292 25.70119353 86 30 C83.7984026 32.89683868 82.21405538 34.39297231 79 36 C76.06918329 36.28827705 73.85102697 36.49079575 71 36 C68.375 33.8125 68.375 33.8125 66 31 C64.06904909 28.99498522 62.32875662 27.61587194 60 26 C55.84280886 26.02874959 54.2232654 26.81316825 51.0078125 29.50390625 C50.03373549 30.51089127 49.07292487 31.53085894 48.125 32.5625 C47.62742187 33.08263672 47.12984375 33.60277344 46.6171875 34.13867188 C45.39971388 35.41467789 44.19819008 36.70586944 43 38 C43.39832031 38.44730469 43.79664063 38.89460938 44.20703125 39.35546875 C49.47670941 45.36879979 52.62192213 49.29585944 52.3515625 57.56640625 C51.63542317 62.52368186 48.91179826 65.21253787 45.25 68.375 C44.5075 68.91125 43.765 69.4475 43 70 C44.51752791 73.52744519 46.58212778 75.94249542 49.25 78.6875 C49.99765625 79.47511719 50.7453125 80.26273438 51.515625 81.07421875 C54.43795116 83.33948101 56.32442984 83.87446823 60 84 C62.62499209 81.87640616 62.62499209 81.87640616 65 79 C68.1810542 75.8189458 70.47099813 73.67693346 75 73.375 C79.63537819 73.65970653 81.82466339 75.74721616 85 79 C86.61284574 82.22569149 86.4421643 85.5022824 86 89 C82.50014552 96.31787754 74.46974744 104.82331556 67.171875 108.4375 C61.26358233 109.9677053 53.51798788 110.9600776 48.02026367 107.89697266 C42.11202283 103.64154258 37.20221082 98.29712922 32.20507812 93.0390625 C31.57408203 92.389375 30.94308594 91.7396875 30.29296875 91.0703125 C29.7311792 90.48008301 29.16938965 89.88985352 28.59057617 89.28173828 C26.95113238 87.6862698 26.95113238 87.6862698 24 88 C22.64843325 89.65191491 21.320238 91.32294092 20 93 C18.09922834 94.78223802 16.13659662 96.47150902 14.15234375 98.16015625 C12.70784566 99.39492685 11.28327575 100.65336741 9.87890625 101.93359375 C8.85603516 102.86365234 8.85603516 102.86365234 7.8125 103.8125 C6.89404297 104.65748047 6.89404297 104.65748047 5.95703125 105.51953125 C1.93209582 108.56434269 -1.83099288 109.30971157 -6.8125 109.375 C-7.78832031 109.40335938 -8.76414063 109.43171875 -9.76953125 109.4609375 C-18.19118612 108.25929872 -23.34635046 103.16689692 -29 97.1875 C-33.52751218 92.47871048 -38.09042801 87.96397146 -43.04492188 83.70385742 C-46.22314173 80.93402771 -49.24488274 78.01775359 -52.25 75.0625 C-52.848125 74.49337891 -53.44625 73.92425781 -54.0625 73.33789062 C-58.69693702 68.77009927 -62.14261859 63.98430186 -63.53125 57.53125 C-63.5209375 56.8609375 -63.510625 56.190625 -63.5 55.5 C-63.5103125 54.8296875 -63.520625 54.159375 -63.53125 53.46875 C-61.77449278 45.30499586 -56.60450777 40.01191645 -50.8671875 34.3359375 C-50.07531036 33.54023346 -49.28343323 32.74452942 -48.46755981 31.92471313 C-46.79643688 30.25087923 -45.12029594 28.58204184 -43.43945312 26.91796875 C-40.88979116 24.38966724 -38.36210383 21.84081524 -35.8359375 19.2890625 C-34.2018012 17.65757072 -32.56642382 16.02732089 -30.9296875 14.3984375 C-30.18451874 13.64517181 -29.43934998 12.89190613 -28.67160034 12.11581421 C-20.34942854 3.93795686 -12.09112659 -2.34234649 0 0 Z " fill="#2A368A" transform="translate(179,458)"/>
<path d="M0 0 C1.46751239 0.00399142 2.93502584 0.01874717 4.40234375 0.04296875 C5.14806641 0.04361328 5.89378906 0.04425781 6.66210938 0.04492188 C12.19956216 0.09018716 12.19956216 0.09018716 13.33984375 1.23046875 C13.42843021 3.9694096 13.45507854 6.68300145 13.4375 9.421875 C13.43608505 10.24171371 13.4346701 11.06155243 13.43321228 11.90623474 C13.42759664 14.53518257 13.41504154 17.16404648 13.40234375 19.79296875 C13.39733076 21.57096232 13.39276751 23.34895721 13.38867188 25.12695312 C13.37762214 29.4948242 13.36034706 33.86263223 13.33984375 38.23046875 C13.86658691 37.81909668 14.39333008 37.40772461 14.93603516 36.98388672 C15.63905762 36.44393066 16.34208008 35.90397461 17.06640625 35.34765625 C17.75814941 34.81253418 18.44989258 34.27741211 19.16259766 33.72607422 C26.32237309 28.80784319 34.54421953 28.17511988 42.9140625 29.69921875 C51.88689338 32.00769591 59.22021931 37.49786092 64.33984375 45.23046875 C70.49243237 57.59461649 70.81531801 70.89102381 67.375 84.15625 C64.23322248 93.48673644 58.61100915 100.92830822 49.83984375 105.546875 C41.67540293 108.95268098 32.4619739 109.90273789 23.96484375 107.04296875 C20.03951571 105.3058023 16.72857373 102.84261477 13.33984375 100.23046875 C13.19546875 101.03484375 13.05109375 101.83921875 12.90234375 102.66796875 C12.33984375 105.23046875 12.33984375 105.23046875 11.33984375 106.23046875 C8.84745806 106.35700073 6.39513934 106.415667 3.90234375 106.41796875 C3.20818359 106.43021484 2.51402344 106.44246094 1.79882812 106.45507812 C-0.02236526 106.46036717 -1.84302545 106.35216082 -3.66015625 106.23046875 C-6.04315033 103.84747467 -5.91085694 103.37036684 -5.91412354 100.13110352 C-5.92258301 98.84394943 -5.92258301 98.84394943 -5.93121338 97.53079224 C-5.92716492 96.58734955 -5.92311646 95.64390686 -5.91894531 94.671875 C-5.92244995 93.67993134 -5.92595459 92.68798767 -5.92956543 91.66598511 C-5.93839473 88.37490924 -5.93252932 85.08404694 -5.92578125 81.79296875 C-5.92712755 79.51375283 -5.92906779 77.2345372 -5.93157959 74.95532227 C-5.93453248 70.17363761 -5.93022788 65.39202756 -5.92089844 60.61035156 C-5.90950386 54.46969158 -5.91606244 48.32920642 -5.92804337 42.18855286 C-5.93525749 37.48065871 -5.93297609 32.77280626 -5.92778778 28.06491089 C-5.92645005 25.80020121 -5.9281033 23.53548779 -5.93274689 21.27078247 C-5.93780475 18.11010657 -5.93011223 14.94971698 -5.91894531 11.7890625 C-5.92299377 10.84561981 -5.92704224 9.90217712 -5.93121338 8.93014526 C-5.92557373 8.07204254 -5.91993408 7.21393982 -5.91412354 6.32983398 C-5.91299246 5.20822121 -5.91299246 5.20822121 -5.91183853 4.06394958 C-5.38596392 0.2330044 -3.56491098 0.22447145 0 0 Z " fill="#060606" transform="translate(635.66015625,458.76953125)"/>
<path d="M0 0 C9.28272163 6.81853007 14.56040009 14.71062695 17 26 C18.51452528 38.92666103 16.57241499 51.21104998 8.82421875 61.96484375 C2.14195296 69.41979124 -6.27390672 73.69913896 -16.1796875 74.3125 C-28.46342535 74.77931575 -38.31209899 73.10532303 -47.99609375 64.98046875 C-54.92791801 58.12971846 -58.97623099 49.60567636 -59.3984375 39.84375 C-59.40628442 38.06250015 -59.39833338 36.2811143 -59.375 34.5 C-59.39240234 33.17162109 -59.39240234 33.17162109 -59.41015625 31.81640625 C-59.36363885 21.25695535 -55.99240533 12.9369704 -49 5 C-35.59836583 -6.80672894 -15.55692389 -9.62164443 0 0 Z " fill="#050505" transform="translate(468,493)"/>
<path d="M0 0 C3.08069381 1.92846581 5.47479875 4.40186874 8 7 C9.35697433 8.35697433 10.71398789 9.71390998 12.07202148 11.06982422 C13.02498972 12.02425881 13.97502513 12.98163063 14.92211914 13.94189453 C17.62346341 16.67287221 20.38468478 19.26443602 23.3125 21.75 C26.38981053 24.37071771 28.92649495 27.17300622 31.48046875 30.296875 C33.65199591 32.73077177 36.12489647 34.71988574 38.6796875 36.73828125 C39.11539063 37.15464844 39.55109375 37.57101562 40 38 C40 38.66 40 39.32 40 40 C41.485 40.495 41.485 40.495 43 41 C44.578125 42.63671875 44.578125 42.63671875 46.25 44.6875 C51.95702054 51.90772417 51.95702054 51.90772417 60 55.375 C63.8742043 53.59932303 65.86419396 51.11723285 68.484375 47.8125 C70.85023944 44.98321882 71.9668176 45.00331824 75.75 44.625 C79.10058068 44.64941225 80.84894532 45.24398646 83.4375 47.375 C86.6191664 50.63426802 86.93242848 51.18914181 87.3125 55.75 C87.12769009 63.68261012 80.88822021 68.52604606 75.4921875 73.71875 C68.73976982 79.89964644 64.09949911 80.47488324 54.81640625 80.7265625 C45.66417496 78.98417251 39.36953821 70.52541065 33.20507812 64.0390625 C32.57408203 63.389375 31.94308594 62.7396875 31.29296875 62.0703125 C30.7311792 61.48008301 30.16938965 60.88985352 29.59057617 60.28173828 C27.95113238 58.6862698 27.95113238 58.6862698 25 59 C23.64843325 60.65191491 22.320238 62.32294092 21 64 C19.09922834 65.78223802 17.13659662 67.47150902 15.15234375 69.16015625 C13.70784566 70.39492685 12.28327575 71.65336741 10.87890625 72.93359375 C9.85603516 73.86365234 9.85603516 73.86365234 8.8125 74.8125 C7.89404297 75.65748047 7.89404297 75.65748047 6.95703125 76.51953125 C2.82827176 79.64288424 -0.89552566 80.27604324 -6 80.25 C-7.5159375 80.25773438 -7.5159375 80.25773438 -9.0625 80.265625 C-12.0703976 79.99363426 -14.27306793 79.26321118 -17 78 C-15.515 77.01 -15.515 77.01 -14 76 C-10.6800705 73.5707833 -8.47428016 71.85780799 -7 68 C-6.71121265 65.59162245 -6.50954974 63.17189532 -6.375 60.75 C-6.30023438 59.48671875 -6.22546875 58.2234375 -6.1484375 56.921875 C-6.09945312 55.95765625 -6.05046875 54.9934375 -6 54 C-6.59167969 53.88914062 -7.18335938 53.77828125 -7.79296875 53.6640625 C-12.03047337 52.38906111 -14.84391625 48.98750955 -18 46 C-18.59973633 45.44344727 -19.19947266 44.88689453 -19.81738281 44.31347656 C-21.87548654 42.3938508 -23.90818263 40.4500041 -25.9375 38.5 C-26.95034058 37.55713135 -26.95034058 37.55713135 -27.98364258 36.59521484 C-30.98031273 33.66451033 -32.81462989 31.46631349 -34.37890625 27.53125 C-33.80133129 22.14848956 -30.76616181 19.67750534 -27 16 C-26.32372559 15.30148926 -25.64745117 14.60297852 -24.95068359 13.88330078 C-22.88550718 11.75265627 -20.79148053 9.65478092 -18.6875 7.5625 C-17.97271484 6.84384766 -17.25792969 6.12519531 -16.52148438 5.38476562 C-15.83763672 4.70220703 -15.15378906 4.01964844 -14.44921875 3.31640625 C-13.83393311 2.70224854 -13.21864746 2.08809082 -12.5847168 1.45532227 C-8.78546551 -2.03371438 -4.7129522 -1.32266723 0 0 Z " fill="#3D4DD3" transform="translate(178,487)"/>
<path d="M0 0 C0.78503906 0.25652344 1.57007813 0.51304687 2.37890625 0.77734375 C12.20978496 4.27443496 21.27873318 11.17646589 27 20 C27.46875 22.5703125 27.46875 22.5703125 27 25 C23.49249434 28.59499447 18.99127996 30.64717154 14.3125 32.3125 C11 32 11 32 9.515625 30.66015625 C8.51654361 29.43279014 7.54370821 28.18373753 6.59375 26.91796875 C2.42874168 21.90566707 -3.70207758 19.17418893 -10 18 C-19.8048144 17.16427762 -28.18785278 18.75028222 -36 25 C-43.94732093 32.62863137 -47.07758423 41.69455479 -47.3125 52.5625 C-47.21229402 63.19546776 -44.27818362 72.15023127 -37 80 C-30.86715103 85.96709629 -24.14554137 88.26139945 -15.6875 88.625 C-5.62308595 88.3224625 1.63555854 84.6273049 8.75 77.625 C9.84964047 76.43148779 10.93975247 75.22863979 12 74 C17.31939231 75.32984808 22.32271932 77.86539254 26 82 C26.65228616 85.32665942 26.24720581 86.62322013 24.3828125 89.46484375 C16.11761268 98.51652452 5.48446245 106.3140566 -7.17553711 107.14233398 C-24.47109071 107.81022753 -37.7006973 105.62176117 -51.2890625 94.05078125 C-60.30242171 85.45939579 -66.2771517 74.09794144 -67.17700195 61.52734375 C-67.64273494 41.84409459 -65.80384584 27.12688367 -51.6875 12.1875 C-37.99108661 -0.74671838 -18.12199081 -6.24896235 0 0 Z " fill="#050506" transform="translate(378,460)"/>
<path d="M0 0 C5.22271654 3.35124311 9.49117254 6.84645325 11.44212341 12.98858643 C11.97676209 15.72372618 11.99448252 18.28530656 11.98852539 21.07324219 C11.98841209 22.84462555 11.98841209 22.84462555 11.98829651 24.65179443 C11.98313522 25.92170227 11.97797394 27.19161011 11.97265625 28.5 C11.9712413 29.80390686 11.96982635 31.10781372 11.96836853 32.45123291 C11.96455867 35.91015555 11.95474151 39.36903591 11.94366455 42.82794189 C11.93341746 46.36054919 11.92886385 49.89316336 11.92382812 53.42578125 C11.91311782 60.35158158 11.89553346 67.2773469 11.875 74.203125 C6.595 74.203125 1.315 74.203125 -4.125 74.203125 C-5.115 72.223125 -6.105 70.243125 -7.125 68.203125 C-7.69347656 68.61304688 -8.26195312 69.02296875 -8.84765625 69.4453125 C-18.07571466 75.88492588 -25.9343041 77.02324692 -37.125 76.203125 C-43.07744911 75.02970313 -48.17108548 70.65695975 -52.125 66.203125 C-55.50976413 59.88563365 -54.902663 52.13265777 -54.125 45.203125 C-51.61178725 38.93857264 -46.13149564 34.94476587 -40.125 32.203125 C-32.82692308 29.50447919 -25.30075829 28.60657368 -17.60546875 27.828125 C-13.76653868 27.13875484 -9.96305766 26.04118266 -7.125 23.203125 C-6.70719121 20.83006922 -6.70719121 20.83006922 -7.125 18.203125 C-9.3727854 15.41277071 -10.70230016 14.34402495 -14.125 13.203125 C-20.30785504 12.69840214 -25.93371621 12.40462466 -31.125 16.203125 C-31.764375 17.255 -32.40375 18.306875 -33.0625 19.390625 C-35.125 22.203125 -35.125 22.203125 -38.3125 22.828125 C-43.03414664 22.05408457 -46.88219831 20.35819888 -51.125 18.203125 C-51.69630205 13.51844816 -50.79074184 10.67720049 -47.875 6.94140625 C-36.59548718 -4.26257412 -14.20143108 -7.20215433 0 0 Z " fill="#3C4CC6" transform="translate(839.125,490.796875)"/>
<path d="M0 0 C1.25683594 -0.01740234 1.25683594 -0.01740234 2.5390625 -0.03515625 C10.10890143 -0.0000022 17.52575349 1.34575422 23.3125 6.5625 C23.92738281 7.09230469 24.54226563 7.62210937 25.17578125 8.16796875 C31.38736943 15.68305937 31.56052133 22.38690261 31.42578125 31.80859375 C31.42084908 33.71911278 31.42084908 33.71911278 31.41581726 35.66822815 C31.40542843 38.34732487 31.38779115 41.02505397 31.35668945 43.70385742 C31.3168362 47.14281421 31.29903105 50.58142152 31.28938007 54.02058315 C31.27943758 57.30413425 31.2591999 60.58759658 31.23828125 63.87109375 C31.23089432 65.10951523 31.22350739 66.34793671 31.21589661 67.62388611 C31.20306137 68.75919266 31.19022614 69.89449921 31.17700195 71.06420898 C31.16715775 72.0682225 31.15731354 73.07223602 31.14717102 74.10667419 C31 76.375 31 76.375 30 77.375 C27.5057035 77.52813272 25.05811507 77.60656517 22.5625 77.625 C21.86833984 77.645625 21.17417969 77.66625 20.45898438 77.6875 C18.44140625 77.703125 18.44140625 77.703125 15 77.375 C13 74.375 13 74.375 13 71.375 C12.443125 71.78492188 11.88625 72.19484375 11.3125 72.6171875 C2.15764789 79.08125538 -5.90894933 80.25739693 -17 79.375 C-23.193307 78.12906306 -28.24998145 75.9482149 -32.1875 70.83203125 C-36.05611389 64.53210099 -35.90947591 57.52790514 -35 50.375 C-33.32200974 44.56527492 -30.34739879 41.25087953 -25.3125 38 C-16.41400635 33.27755381 -7.30655419 31.8006957 2.57592773 30.46411133 C3.37587158 30.35091553 4.17581543 30.23771973 5 30.12109375 C5.721875 30.02497803 6.44375 29.9288623 7.1875 29.82983398 C9.23699983 29.48049001 9.23699983 29.48049001 11 27.375 C11.50007794 23.91713985 11.50007794 23.91713985 11 20.375 C7.63618475 16.89519112 3.88656134 16.19964618 -0.8125 16.0625 C-5.6661481 16.11901992 -8.28169946 17.09935428 -12 20.375 C-12.639375 21.2825 -13.27875 22.19 -13.9375 23.125 C-16 25.375 -16 25.375 -19.25 25.9375 C-23.60935081 25.28359738 -27.49879909 24.14180267 -31 21.375 C-32.06438526 18.99116941 -32.19531997 17.90225718 -31.28515625 15.4453125 C-23.92357269 3.73263322 -13.46238786 -0.18640229 0 0 Z " fill="#050505" transform="translate(588,487.625)"/>
<path d="M0 0 C0.79792969 0.00386719 1.59585938 0.00773437 2.41796875 0.01171875 C3.21589844 0.00785156 4.01382813 0.00398438 4.8359375 0 C10.79136108 0.01011108 10.79136108 0.01011108 11.91796875 1.13671875 C12.04119633 2.91575232 12.09585894 4.69958078 12.12329102 6.48266602 C12.14323624 7.62377335 12.16318146 8.76488068 12.18373108 9.94056702 C12.20044357 11.18221115 12.21715607 12.42385529 12.234375 13.703125 C12.2551561 14.96688461 12.27593719 16.23064423 12.29734802 17.53269958 C12.35180589 20.89790508 12.40201155 24.26312048 12.45019531 27.62841797 C12.50036634 31.06027776 12.5560753 34.49204706 12.61132812 37.92382812 C12.71867066 44.66138636 12.820412 51.39901211 12.91796875 58.13671875 C15.86328585 56.7267469 17.84066568 55.426122 20.0546875 53.01171875 C20.62654785 52.39176025 21.1984082 51.77180176 21.78759766 51.13305664 C22.38749512 50.47426514 22.98739258 49.81547363 23.60546875 49.13671875 C24.23630371 48.46697021 24.86713867 47.79722168 25.51708984 47.10717773 C28.29176386 44.14010451 30.82330209 41.27412733 33.1328125 37.921875 C35.2650892 34.88261762 36.71620378 33.05249284 39.91796875 31.13671875 C46.51777202 29.98068021 53.28239737 30.51478344 59.91796875 31.13671875 C59.39566547 35.01091896 58.55901632 36.99540554 55.8203125 39.7734375 C55.18673828 40.42860352 54.55316406 41.08376953 53.90039062 41.75878906 C53.22556641 42.44038086 52.55074219 43.12197266 51.85546875 43.82421875 C50.48719953 45.24771251 49.12130041 46.67348832 47.7578125 48.1015625 C47.09765137 48.7910498 46.43749023 49.48053711 45.75732422 50.19091797 C43.39052129 52.69469011 41.12820897 55.24309809 38.91796875 57.88671875 C38.29921875 58.6240625 37.68046875 59.36140625 37.04296875 60.12109375 C35.70500457 62.03608674 35.70500457 62.03608674 36.20166016 64.03881836 C36.96049752 66.26127558 37.88722975 67.8140058 39.25390625 69.71875 C39.73617676 70.39663574 40.21844727 71.07452148 40.71533203 71.77294922 C41.23595215 72.49111816 41.75657227 73.20928711 42.29296875 73.94921875 C42.82519043 74.69316895 43.35741211 75.43711914 43.90576172 76.20361328 C48.46513735 82.55980046 53.08989984 88.86885762 57.73828125 95.16015625 C61.94947474 100.91092585 61.94947474 100.91092585 61.54296875 103.82421875 C61.33671875 104.58734375 61.13046875 105.35046875 60.91796875 106.13671875 C45.26739894 107.32914312 45.26739894 107.32914312 40.5859375 104.953125 C38.70304335 102.81282254 37.36743841 100.597832 35.91796875 98.13671875 C34.42618108 95.95317255 32.90015915 93.79623578 31.36865234 91.64038086 C30.29125484 90.11709173 29.22730179 88.58418819 28.17822266 87.04125977 C27.68628418 86.32381592 27.1943457 85.60637207 26.6875 84.8671875 C26.25026611 84.22160889 25.81303223 83.57603027 25.36254883 82.91088867 C23.75141766 80.932168 22.00827654 79.58621856 19.91796875 78.13671875 C16.20081945 80.82510088 13.36709291 83.71770526 12.50439453 88.36425781 C12.09679415 92.63030848 12.01921671 96.88098423 11.98828125 101.1640625 C11.91796875 105.13671875 11.91796875 105.13671875 10.91796875 106.13671875 C8.05529308 106.20997043 5.21724975 106.2291008 2.35546875 106.19921875 C1.54916016 106.19470703 0.74285156 106.19019531 -0.08789062 106.18554688 C-2.08596881 106.17372393 -4.08400908 106.15578789 -6.08203125 106.13671875 C-7.23179531 103.83719062 -7.20774045 102.5495306 -7.20901489 99.99266052 C-7.21183472 99.12469849 -7.21465454 98.25673645 -7.21755981 97.36247253 C-7.21553558 96.40810806 -7.21351135 95.45374359 -7.21142578 94.47045898 C-7.2131781 93.46715546 -7.21493042 92.46385193 -7.21673584 91.43014526 C-7.22115013 88.10185027 -7.21821805 84.77360807 -7.21484375 81.4453125 C-7.21551686 79.14128102 -7.21648694 76.83724962 -7.21774292 74.53321838 C-7.21921928 69.70028 -7.21706712 64.86736007 -7.21240234 60.03442383 C-7.20670191 53.8242086 -7.20998646 47.61403655 -7.21597481 41.4038229 C-7.21957937 36.64536714 -7.21844237 31.88692171 -7.21584702 27.12846565 C-7.21517762 24.83780983 -7.2160066 22.54715308 -7.21832657 20.25649834 C-7.22085172 17.06216809 -7.21701459 13.86790891 -7.21142578 10.67358398 C-7.21345001 9.71719528 -7.21547424 8.76080658 -7.21755981 7.7754364 C-7.21473999 6.91029419 -7.21192017 6.04515198 -7.20901489 5.15379333 C-7.20863787 4.39775535 -7.20826084 3.64171736 -7.20787239 2.86276913 C-6.90787244 -1.25206193 -3.31752014 0.00563246 0 0 Z " fill="#3B4DCD" transform="translate(720.08203125,458.86328125)"/>
<path d="M0 0 C0.804375 -0.00128906 1.60875 -0.00257813 2.4375 -0.00390625 C3.283125 -0.00003906 4.12875 0.00382812 5 0.0078125 C6.2684375 0.00201172 6.2684375 0.00201172 7.5625 -0.00390625 C8.366875 -0.00261719 9.17125 -0.00132812 10 0 C10.7425 0.00112793 11.485 0.00225586 12.25 0.00341797 C14 0.1328125 14 0.1328125 15 1.1328125 C15.09746311 2.4838857 15.12631579 3.83999623 15.12698364 5.19458008 C15.12980347 6.0695816 15.13262329 6.94458313 15.13552856 7.84609985 C15.13350433 8.81341034 15.1314801 9.78072083 15.12939453 10.77734375 C15.13114685 11.79025482 15.13289917 12.80316589 15.13470459 13.84677124 C15.13912522 17.21296881 15.13618437 20.57911434 15.1328125 23.9453125 C15.13348548 26.27319346 15.13445545 28.60107436 15.13571167 30.92895508 C15.13718893 35.81494819 15.13503318 40.70092306 15.13037109 45.58691406 C15.1246738 51.86553906 15.12795265 58.14412132 15.13394356 64.42274475 C15.13754841 69.23181483 15.13641093 74.04087469 15.13381577 78.84994507 C15.13314629 81.16572067 15.13397564 83.48149719 15.13629532 85.79727173 C15.13882061 89.02763341 15.13498299 92.25792483 15.12939453 95.48828125 C15.13141876 96.45559174 15.13344299 97.42290222 15.13552856 98.41952515 C15.13129883 99.73202744 15.13129883 99.73202744 15.12698364 101.07104492 C15.12660662 101.83575607 15.12622959 102.60046722 15.12584114 103.38835144 C15 105.1328125 15 105.1328125 14 106.1328125 C11.17743509 106.23288258 8.3847681 106.27156848 5.5625 106.2578125 C4.77294922 106.26167969 3.98339844 106.26554688 3.16992188 106.26953125 C-2.74673867 106.25944317 -2.74673867 106.25944317 -5 105.1328125 C-5.0231206 91.59017072 -5.04091364 78.0475336 -5.05181217 64.50487614 C-5.05704162 58.21719226 -5.06414039 51.92952184 -5.07543945 45.6418457 C-5.08626614 39.57943527 -5.09227637 33.51703781 -5.09487724 27.45461845 C-5.09673189 25.13604973 -5.10035325 22.81748176 -5.10573006 20.49891853 C-5.11293758 17.26366742 -5.11399106 14.02847067 -5.11352539 10.79321289 C-5.11712067 9.82433136 -5.12071594 8.85544983 -5.12442017 7.85720825 C-5.1230455 6.98076157 -5.12167084 6.10431488 -5.12025452 5.2013092 C-5.12117631 4.43529923 -5.1220981 3.66928926 -5.12304783 2.88006687 C-4.8827262 -0.53245185 -2.94083764 0.00446742 0 0 Z " fill="#0B0B0C" transform="translate(498,458.8671875)"/>
<path d="M0 0 C0.79792969 0.00386719 1.59585938 0.00773437 2.41796875 0.01171875 C3.21589844 0.00785156 4.01382813 0.00398438 4.8359375 0 C10.79136108 0.01011108 10.79136108 0.01011108 11.91796875 1.13671875 C12.01543186 2.48779195 12.04428454 3.84390248 12.04495239 5.19848633 C12.04777222 6.07348785 12.05059204 6.94848938 12.05349731 7.8500061 C12.05147308 8.81731659 12.04944885 9.78462708 12.04736328 10.78125 C12.0491156 11.79416107 12.05086792 12.80707214 12.05267334 13.85067749 C12.05709397 17.21687506 12.05415312 20.58302059 12.05078125 23.94921875 C12.05145423 26.27709971 12.0524242 28.60498061 12.05368042 30.93286133 C12.05515768 35.81885444 12.05300193 40.70482931 12.04833984 45.59082031 C12.04264255 51.86944531 12.0459214 58.14802757 12.05191231 64.426651 C12.05551716 69.23572108 12.05437968 74.04478094 12.05178452 78.85385132 C12.05111504 81.16962692 12.05194439 83.48540344 12.05426407 85.80117798 C12.05678936 89.03153966 12.05295174 92.26183108 12.04736328 95.4921875 C12.04938751 96.45949799 12.05141174 97.42680847 12.05349731 98.4234314 C12.04926758 99.73593369 12.04926758 99.73593369 12.04495239 101.07495117 C12.04457537 101.83966232 12.04419834 102.60437347 12.04380989 103.39225769 C11.91796875 105.13671875 11.91796875 105.13671875 10.91796875 106.13671875 C8.07461827 106.2365885 5.26099712 106.27549756 2.41796875 106.26171875 C1.62003906 106.26558594 0.82210937 106.26945313 0 106.2734375 C-5.95542358 106.26332642 -5.95542358 106.26332642 -7.08203125 105.13671875 C-7.17949436 103.78564555 -7.20834704 102.42953502 -7.20901489 101.07495117 C-7.21183472 100.19994965 -7.21465454 99.32494812 -7.21755981 98.4234314 C-7.21553558 97.45612091 -7.21351135 96.48881042 -7.21142578 95.4921875 C-7.2131781 94.47927643 -7.21493042 93.46636536 -7.21673584 92.42276001 C-7.22115647 89.05656244 -7.21821562 85.69041691 -7.21484375 82.32421875 C-7.21551673 79.99633779 -7.2164867 77.66845689 -7.21774292 75.34057617 C-7.21922018 70.45458306 -7.21706443 65.56860819 -7.21240234 60.68261719 C-7.20670505 54.40399219 -7.2099839 48.12540993 -7.21597481 41.8467865 C-7.21957966 37.03771642 -7.21844218 32.22865656 -7.21584702 27.41958618 C-7.21517754 25.10381058 -7.21600689 22.78803406 -7.21832657 20.47225952 C-7.22085186 17.24189784 -7.21701424 14.01160642 -7.21142578 10.78125 C-7.21345001 9.81393951 -7.21547424 8.84662903 -7.21755981 7.8500061 C-7.21473999 6.97500458 -7.21192017 6.10000305 -7.20901489 5.19848633 C-7.20863787 4.43377518 -7.20826084 3.66906403 -7.20787239 2.88117981 C-6.90978515 -1.25102673 -3.33829388 0.00566773 0 0 Z " fill="#040506" transform="translate(532.08203125,458.86328125)"/>
<path d="M0 0 C1.46373047 0.02707031 1.46373047 0.02707031 2.95703125 0.0546875 C3.69308594 0.07789063 4.42914062 0.10109375 5.1875 0.125 C5.21434312 2.93756281 5.23426188 5.74987241 5.25 8.5625 C5.25837891 9.36494141 5.26675781 10.16738281 5.27539062 10.99414062 C5.2840143 13.03795221 5.2397815 15.08183902 5.1875 17.125 C3.44615105 18.86634895 0.87109666 18.62543685 -1.5 18.9375 C-8.18173831 20.02338155 -11.96988764 21.68478364 -16.125 27.1875 C-18.14935676 30.71138029 -18.93396858 33.30878847 -19.00195312 37.30517578 C-19.01867065 38.14259308 -19.03538818 38.98001038 -19.0526123 39.84280396 C-19.06618774 40.74288177 -19.07976318 41.64295959 -19.09375 42.5703125 C-19.11215942 43.49592987 -19.13056885 44.42154724 -19.14953613 45.37521362 C-19.22829653 49.34003038 -19.29615185 53.30501586 -19.36474609 57.27001953 C-19.41632719 60.1618732 -19.47361764 63.05357415 -19.53125 65.9453125 C-19.54482544 66.84943878 -19.55840088 67.75356506 -19.5723877 68.68508911 C-19.69965426 75.01215426 -19.69965426 75.01215426 -20.8125 76.125 C-23.67517567 76.19825168 -26.513219 76.21738205 -29.375 76.1875 C-30.18130859 76.18298828 -30.98761719 76.17847656 -31.81835938 76.17382812 C-33.81643756 76.16200518 -35.81447783 76.14406914 -37.8125 76.125 C-39.28108473 73.18783054 -38.93984295 70.58352756 -38.94189453 67.30444336 C-38.94452301 66.2530291 -38.94452301 66.2530291 -38.94720459 65.18037415 C-38.95161366 62.85850566 -38.94868875 60.53671304 -38.9453125 58.21484375 C-38.94598573 56.6058399 -38.94695592 54.99683614 -38.94821167 53.38783264 C-38.9496873 50.01432325 -38.94753812 46.64084031 -38.94287109 43.26733398 C-38.93716931 38.93367124 -38.9404565 34.60007036 -38.94644356 30.26640987 C-38.95004891 26.94397003 -38.94891079 23.62154497 -38.94631577 20.29910469 C-38.94564666 18.70063838 -38.94647435 17.10217074 -38.94879532 15.50370598 C-38.95132191 13.27448825 -38.9474814 11.04537222 -38.94189453 8.81616211 C-38.94109894 7.54534286 -38.94030334 6.27452362 -38.93948364 4.9651947 C-38.8125 2.125 -38.8125 2.125 -37.8125 1.125 C-34.94982433 1.05174832 -32.111781 1.03261795 -29.25 1.0625 C-28.44369141 1.06701172 -27.63738281 1.07152344 -26.80664062 1.07617188 C-24.80856244 1.08799482 -22.81052217 1.10593086 -20.8125 1.125 C-20.1525 3.765 -19.4925 6.405 -18.8125 9.125 C-18.29300781 8.64289063 -17.77351562 8.16078125 -17.23828125 7.6640625 C-16.54089844 7.03242188 -15.84351563 6.40078125 -15.125 5.75 C-14.44050781 5.12351562 -13.75601563 4.49703125 -13.05078125 3.8515625 C-8.81825821 0.58668434 -5.28456181 -0.12733884 0 0 Z " fill="#404FC9" transform="translate(901.8125,488.875)"/>
<path d="M0 0 C4.46742188 2.88979242 7.84652172 6.097861 10 11 C4.25 16 4.25 16 2 16 C-0.5276818 20.73940337 -1.06380465 25.77624284 0 31 C1.95528477 34.10545229 4.31876131 36.51396926 7 39 C8.00225988 39.997735 9.00307217 40.99693723 10 42 C7.58496271 47.64356082 2.67887748 52.48433094 -3.01953125 54.83203125 C-6.4597208 55.24541452 -8.39857652 54.41604602 -11.23046875 52.45703125 C-13.41348825 50.55890826 -15.46673924 48.58339601 -17.48876953 46.515625 C-19.19087026 44.80857471 -20.94829793 43.1714534 -22.71484375 41.53125 C-23.99860441 40.31377311 -25.28116224 39.09502662 -26.5625 37.875 C-27.1827002 37.30185059 -27.80290039 36.72870117 -28.44189453 36.13818359 C-31.28568863 33.36105952 -32.87493338 31.32014138 -34.33984375 27.5703125 C-33.82324407 22.14304693 -30.78902196 19.69982735 -27 16 C-26.32372559 15.30148926 -25.64745117 14.60297852 -24.95068359 13.88330078 C-22.88550718 11.75265627 -20.79148053 9.65478092 -18.6875 7.5625 C-17.97271484 6.84384766 -17.25792969 6.12519531 -16.52148438 5.38476562 C-15.83763672 4.70220703 -15.15378906 4.01964844 -14.44921875 3.31640625 C-13.83393311 2.70224854 -13.21864746 2.08809082 -12.5847168 1.45532227 C-8.79922641 -2.02107709 -4.69413504 -1.35077654 0 0 Z " fill="#E7E7E8" transform="translate(178,487)"/>
<path d="M0 0 C6.32866561 3.98981093 15.13639731 11.25716962 18.53125 18.046875 C19.14891523 23.52644798 19.57556644 27.67277442 16.15625 32.171875 C12.48431929 34.79468265 10.13711155 35.45237686 5.55078125 35.39453125 C2.1552507 34.81000085 0.68869683 32.60174624 -1.46875 30.046875 C-3.39970091 28.04186022 -5.13999338 26.66274694 -7.46875 25.046875 C-11.62594114 25.07562459 -13.2454846 25.86004325 -16.4609375 28.55078125 C-17.43501451 29.55776627 -18.39582513 30.57773394 -19.34375 31.609375 C-19.84132812 32.12951172 -20.33890625 32.64964844 -20.8515625 33.18554688 C-22.06903612 34.46155289 -23.27055992 35.75274444 -24.46875 37.046875 C-26.96236571 35.84306052 -29.15018083 34.59258778 -31.46875 33.046875 C-31.46875 32.386875 -31.46875 31.726875 -31.46875 31.046875 C-32.05140625 30.79164063 -32.6340625 30.53640625 -33.234375 30.2734375 C-35.68263223 28.92946413 -37.28618248 27.42877204 -39.21875 25.421875 C-39.83234375 24.79023438 -40.4459375 24.15859375 -41.078125 23.5078125 C-41.53703125 23.02570313 -41.9959375 22.54359375 -42.46875 22.046875 C-38.74691402 18.27652347 -34.92669684 14.6370646 -31.03125 11.046875 C-30.48404297 10.53898437 -29.93683594 10.03109375 -29.37304688 9.5078125 C-20.7275386 1.52734332 -12.47004426 -4.81438418 0 0 Z " fill="#3D4ED0" transform="translate(246.46875,458.953125)"/>
<path d="M0 0 C5.1154779 3.74303261 9.05919303 8.64205804 10.5625 14.875 C11.6635538 24.36823215 9.79705931 31.80752375 4.6875 39.8125 C0.77763096 43.60737289 -2.86403323 45.07008521 -8.25 45.4375 C-14.1454691 45.23298146 -18.24006537 42.94394173 -22.4375 38.875 C-27.70097444 31.15426816 -28.28760118 23.02091613 -27.4375 13.875 C-25.74118862 8.0938491 -22.81669507 2.87841669 -17.59375 -0.3515625 C-11.85978082 -2.40831231 -5.69449664 -1.86365345 0 0 Z " fill="#E6E6E6" transform="translate(455.4375,506.125)"/>
<path d="M0 0 C0.99 0.845625 1.98 1.69125 3 2.5625 C3.63808594 3.10132813 4.27617187 3.64015625 4.93359375 4.1953125 C6.33684211 5.42083375 7.70379116 6.68893185 9.03515625 7.9921875 C12.95648587 11.85188262 12.95648587 11.85188262 18.0625 13.4375 C21.84341684 11.5872641 23.89256513 9.08144939 26.484375 5.8125 C28.85023944 2.98321882 29.9668176 3.00331824 33.75 2.625 C37.10058068 2.64941225 38.84894532 3.24398646 41.4375 5.375 C44.6191664 8.63426802 44.93242848 9.18914181 45.3125 13.75 C45.12769009 21.68261012 38.88822021 26.52604606 33.4921875 31.71875 C26.73976982 37.89964644 22.09949911 38.47488324 12.81640625 38.7265625 C4.32940699 37.11081853 -1.62763817 29.68761029 -7.5 23.75 C-8.22703125 23.03070312 -8.9540625 22.31140625 -9.703125 21.5703125 C-10.38890625 20.88195312 -11.0746875 20.19359375 -11.78125 19.484375 C-12.40064453 18.86272461 -13.02003906 18.24107422 -13.65820312 17.60058594 C-15 16 -15 16 -15 14 C-13.48449078 12.69342506 -11.91075765 11.45394299 -10.3125 10.25 C-6.2739916 7.11084737 -3.06118833 4.08158444 0 0 Z " fill="#1D254F" transform="translate(220,529)"/>
<path d="M0 0 C5.32491479 3.83889206 9.39785089 8.36028952 10.6875 14.9375 C11.44084604 22.81339045 10.66513026 30.63647851 6.0703125 37.2734375 C2.64566026 41.34480518 -0.22330069 44.49909878 -5.6796875 45.2734375 C-11.4470342 45.36327156 -14.82052445 44.90715281 -19.3125 40.9375 C-25.56759625 34.57786175 -26.76112419 28.7561678 -26.74633789 20.1081543 C-26.54921227 12.94047025 -24.57038434 7.65233435 -19.80859375 2.22265625 C-14.1574942 -2.69311951 -6.79128295 -2.17833604 0 0 Z " fill="#E5E5E5" transform="translate(675.3125,506.0625)"/>
<path d="M0 0 C0.40758545 0.89436768 0.8151709 1.78873535 1.23510742 2.71020508 C2.96485055 5.93448072 4.67104866 8.05778018 7.23828125 10.63671875 C8.05876953 11.46107422 8.87925781 12.28542969 9.72460938 13.13476562 C10.57861328 13.97716797 11.43261719 14.81957031 12.3125 15.6875 C13.15490234 16.54150391 13.99730469 17.39550781 14.86523438 18.27539062 C16.10176758 19.50612305 16.10176758 19.50612305 17.36328125 20.76171875 C18.10876221 21.50381592 18.85424316 22.24591309 19.62231445 23.01049805 C22.24790245 25.20742962 24.89365302 26.58436092 28 28 C28.68858357 41.96294462 28.68858357 41.96294462 26.25 45.6875 C21.22474197 50.85234853 21.22474197 50.85234853 17.61645508 51.28735352 C14.28067251 50.92099949 13.36490966 49.93543148 11.07421875 47.52734375 C10.35943359 46.79193359 9.64464844 46.05652344 8.90820312 45.29882812 C8.17537109 44.51958984 7.44253906 43.74035156 6.6875 42.9375 C5.23561693 41.42333776 3.78120379 39.91159731 2.32421875 38.40234375 C1.60500244 37.65702393 0.88578613 36.9117041 0.14477539 36.14379883 C-2.48146368 33.51875555 -5.24707242 31.10203193 -8.06469727 28.6862793 C-11.26967832 25.89369646 -14.29433706 22.92915877 -17.3125 19.9375 C-17.91900391 19.35162109 -18.52550781 18.76574219 -19.15039062 18.16210938 C-22.62252296 14.72053486 -25.18606497 11.63487076 -27 7 C-26.6875 4.625 -26.6875 4.625 -26 3 C-25.67 3.66 -25.34 4.32 -25 5 C-18.74690207 4.59657433 -14.04384564 3.33388493 -8.30859375 0.85546875 C-5.45557144 -0.20174256 -3.01433567 -0.31729849 0 0 Z " fill="#1C2450" transform="translate(144,513)"/>
<path d="M0 0 C0.57621094 0.21785156 1.15242187 0.43570313 1.74609375 0.66015625 C0.75609375 2.14515625 0.75609375 2.14515625 -0.25390625 3.66015625 C0.40609375 3.99015625 1.06609375 4.32015625 1.74609375 4.66015625 C1.72546875 5.95953125 1.70484375 7.25890625 1.68359375 8.59765625 C1.68359375 14.7296857 2.1588379 20.72461967 3.74609375 26.66015625 C11.59341605 28.99566884 20.04361797 28.0301488 27.74609375 25.66015625 C27.74609375 26.32015625 27.74609375 26.98015625 27.74609375 27.66015625 C27.08609375 28.32015625 26.42609375 28.98015625 25.74609375 29.66015625 C25.74609375 30.65015625 25.74609375 31.64015625 25.74609375 32.66015625 C26.40609375 32.66015625 27.06609375 32.66015625 27.74609375 32.66015625 C27.74609375 33.32015625 27.74609375 33.98015625 27.74609375 34.66015625 C26.09609375 34.00015625 24.44609375 33.34015625 22.74609375 32.66015625 C22.74609375 32.00015625 22.74609375 31.34015625 22.74609375 30.66015625 C21.09609375 30.66015625 19.44609375 30.66015625 17.74609375 30.66015625 C17.74609375 31.32015625 17.74609375 31.98015625 17.74609375 32.66015625 C11.18683432 32.27036419 5.80082748 31.23902432 -0.25390625 28.66015625 C0.07609375 29.65015625 0.40609375 30.64015625 0.74609375 31.66015625 C1.40609375 31.99015625 2.06609375 32.32015625 2.74609375 32.66015625 C2.74609375 33.65015625 2.74609375 34.64015625 2.74609375 35.66015625 C-5.32079588 37.09082257 -5.32079588 37.09082257 -8.69140625 35.53515625 C-10.50084701 33.36382734 -11.34301185 31.32277064 -12.25390625 28.66015625 C-12.58390625 28.33015625 -12.91390625 28.00015625 -13.25390625 27.66015625 C-13.40847193 25.08307069 -13.48563468 22.55123104 -13.50390625 19.97265625 C-13.52453125 19.26431641 -13.54515625 18.55597656 -13.56640625 17.82617188 C-13.60872011 12.09793248 -12.50448338 7.94770385 -8.3515625 3.7265625 C-7.34416016 2.98212891 -7.34416016 2.98212891 -6.31640625 2.22265625 C-5.64738281 1.70832031 -4.97835937 1.19398438 -4.2890625 0.6640625 C-2.25390625 -0.33984375 -2.25390625 -0.33984375 0 0 Z " fill="#3A4ACE" transform="translate(800.25390625,525.33984375)"/>
<path d="M0 0 C0.3762219 7.14821605 -0.56015676 12.01796938 -5.25 17.75 C-10.33053353 21.90680016 -15.32818332 23.66676247 -21.84375 23.41015625 C-25.83235935 22.65145338 -27.40139698 21.13164979 -30 18 C-30.87290389 13.63548054 -30.35394129 11.65731954 -28.25 7.75 C-24.27718737 3.51833556 -18.46705973 3.02422583 -13 2 C-12.04351563 1.79503906 -11.08703125 1.59007812 -10.1015625 1.37890625 C-6.65860421 0.64689899 -3.52815475 0 0 0 Z " fill="#E9E9E8" transform="translate(833,530)"/>
<path d="M0 0 C-0.43478261 13.43478261 -0.43478261 13.43478261 -5 18 C-10.85336152 21.88497446 -15.98126465 24.0528103 -23 23 C-28.5 20 -28.5 20 -30 17 C-30.41906739 13.22839349 -30.31200824 11.49029866 -28.25 8.25 C-23.89049267 3.89049267 -19.25994756 3.37059991 -13.375 2.4375 C-8.90447586 1.71345332 -4.398022 0 0 0 Z " fill="#E0E0E0" transform="translate(601,530)"/>
<path d="M0 0 C0.99 0 1.98 0 3 0 C3 0.99 3 1.98 3 3 C3.75925781 3.04898437 4.51851562 3.09796875 5.30078125 3.1484375 C6.29464844 3.22320312 7.28851562 3.29796875 8.3125 3.375 C9.79169922 3.47941406 9.79169922 3.47941406 11.30078125 3.5859375 C14 4 14 4 17 6 C17.36076355 8.25259399 17.36076355 8.25259399 17.34057617 11.09228516 C17.34034958 12.15323395 17.34012299 13.21418274 17.33988953 14.30728149 C17.32440567 15.45626923 17.30892181 16.60525696 17.29296875 17.7890625 C17.28872391 18.96262299 17.28447906 20.13618347 17.28010559 21.3453064 C17.26326976 25.10543454 17.22560777 28.86503297 17.1875 32.625 C17.17245954 35.16926311 17.15877003 37.7135346 17.14648438 40.2578125 C17.11335017 46.50539005 17.06310206 52.75265719 17 59 C17.66 58.34 18.32 57.68 19 57 C19.8971875 56.8453125 19.8971875 56.8453125 20.8125 56.6875 C24.81332861 55.43009672 27.29067803 52.24975776 29.3125 48.6875 C29.539375 48.130625 29.76625 47.57375 30 47 C30.99 47 31.98 47 33 47 C31.66465724 49.94113469 30.17535119 52.10845169 27.9609375 54.453125 C27.09082031 55.38125 27.09082031 55.38125 26.203125 56.328125 C25.59984375 56.96234375 24.9965625 57.5965625 24.375 58.25 C23.45847656 59.22453125 23.45847656 59.22453125 22.5234375 60.21875 C21.01971926 61.81645063 19.51184263 63.40999149 18 65 C16.515 64.505 16.515 64.505 15 64 C14.67 45.19 14.34 26.38 14 7 C8.39 7 2.78 7 -3 7 C-3 41.65 -3 76.3 -3 112 C5.415 111.505 5.415 111.505 14 111 C14.33 104.73 14.66 98.46 15 92 C15.33 92 15.66 92 16 92 C16.33 98.93 16.66 105.86 17 113 C12.5022392 114.79910432 10.17803458 115.32035006 5.5 115.375 C4.3965625 115.40335938 3.293125 115.43171875 2.15625 115.4609375 C-1.89155208 114.86979809 -3.24552003 114.04061409 -6 111 C-6.76493083 107.71761715 -6.70034687 104.48080072 -6.67529297 101.12255859 C-6.68738297 100.12056931 -6.69947296 99.11858002 -6.71192932 98.08622742 C-6.74583463 94.77334141 -6.74434533 91.46148063 -6.7421875 88.1484375 C-6.75783975 85.84964562 -6.77553661 83.55086682 -6.79519653 81.25210571 C-6.831486 76.43526576 -6.85185233 71.61872759 -6.859375 66.80175781 C-6.869051 60.61614701 -6.90448757 54.4310522 -6.95004082 48.24561119 C-6.99279172 42.35909262 -7.02493531 36.4725344 -7.0546875 30.5859375 C-7.06084957 29.45682323 -7.06701164 28.32770897 -7.07336044 27.16437912 C-7.08835293 23.98245457 -7.09605159 20.80060638 -7.10107422 17.61865234 C-7.10616501 16.66900101 -7.1112558 15.71934967 -7.11650085 14.74092102 C-7.11631454 13.87729446 -7.11612823 13.01366791 -7.11593628 12.12387085 C-7.11773832 11.37135229 -7.11954037 10.61883373 -7.12139702 9.84351158 C-7 8 -7 8 -6 6 C-5.34 6 -4.68 6 -4 6 C-4 5.34 -4 4.68 -4 4 C-3.01 3.67 -2.02 3.34 -1 3 C-0.67 2.01 -0.34 1.02 0 0 Z " fill="#E5EAF8" transform="translate(717,453)"/>
<path d="M0 0 C2.5 1.625 2.5 1.625 4.5 3.625 C5.06799773 9.87297499 5.06799773 9.87297499 3.24536133 12.28613281 C1.19259174 13.86081297 -0.19298345 14.210351 -2.73828125 14.609375 C-3.55876953 14.73957031 -4.37925781 14.86976563 -5.22460938 15.00390625 C-6.07861328 15.12636719 -6.93261719 15.24882813 -7.8125 15.375 C-8.65490234 15.51292969 -9.49730469 15.65085937 -10.36523438 15.79296875 C-14.97476717 16.4921473 -18.92112266 16.856953 -23.5 15.625 C-25.375 14.0625 -25.375 14.0625 -26.5 12.625 C-25.84 12.295 -25.18 11.965 -24.5 11.625 C-24.5 10.965 -24.5 10.305 -24.5 9.625 C-25.49 9.295 -26.48 8.965 -27.5 8.625 C-26.901875 8.53089844 -26.30375 8.43679688 -25.6875 8.33984375 C-23.00662287 7.4637714 -22.19709976 6.40572006 -20.5 4.1875 C-15.27571721 -2.61258548 -7.72087883 -3.0332024 0 0 Z " fill="#E5E3E4" transform="translate(595.5,504.375)"/>
<path d="M0 0 C0.79792969 0.00386719 1.59585938 0.00773437 2.41796875 0.01171875 C3.21589844 0.00785156 4.01382813 0.00398438 4.8359375 0 C10.79136108 0.01011108 10.79136108 0.01011108 11.91796875 1.13671875 C12.01172928 2.947269 12.03540985 4.76149076 12.03149414 6.57446289 C12.03141861 7.73559097 12.03134308 8.89671906 12.03126526 10.09303284 C12.02610397 11.35655075 12.02094269 12.62006866 12.015625 13.921875 C12.01421005 15.20783066 12.0127951 16.49378632 12.01133728 17.81871033 C12.00751293 21.24315318 11.99768337 24.66755384 11.9866333 28.09197998 C11.97641739 31.58410064 11.97183928 35.07622809 11.96679688 38.56835938 C11.95606102 45.42449653 11.93898559 52.28060562 11.91796875 59.13671875 C11.58796875 59.13671875 11.25796875 59.13671875 10.91796875 59.13671875 C10.42296875 30.42671875 10.42296875 30.42671875 9.91796875 1.13671875 C2.29725367 1.54860403 2.29725367 1.54860403 -5.08203125 3.13671875 C-5.08203125 36.13671875 -5.08203125 69.13671875 -5.08203125 103.13671875 C-1.89251695 103.93409733 0.92042028 104.40010244 4.16796875 104.69921875 C5.50601563 104.82490234 5.50601563 104.82490234 6.87109375 104.953125 C7.5465625 105.01371094 8.22203125 105.07429687 8.91796875 105.13671875 C9.68987908 102.35885725 10.07711886 99.79217769 10.19921875 96.9140625 C10.23660156 96.12837891 10.27398438 95.34269531 10.3125 94.53320312 C10.38297974 92.88998112 10.45329145 91.24675191 10.5234375 89.60351562 C10.56082031 88.81912109 10.59820313 88.03472656 10.63671875 87.2265625 C10.66701172 86.51363037 10.69730469 85.80069824 10.72851562 85.06616211 C10.91796875 83.13671875 10.91796875 83.13671875 11.91796875 80.13671875 C13.56796875 80.13671875 15.21796875 80.13671875 16.91796875 80.13671875 C16.27214844 80.92433594 15.62632812 81.71195313 14.9609375 82.5234375 C12.14155623 86.75188813 12.28664918 91.00159527 12.23046875 95.94921875 C12.18857908 97.66415643 12.1432007 99.37901369 12.09375 101.09375 C12.08255127 101.8463208 12.07135254 102.5988916 12.05981445 103.37426758 C11.91796875 105.13671875 11.91796875 105.13671875 10.91796875 106.13671875 C8.05529308 106.20997043 5.21724975 106.2291008 2.35546875 106.19921875 C1.54916016 106.19470703 0.74285156 106.19019531 -0.08789062 106.18554688 C-2.08596881 106.17372393 -4.08400908 106.15578789 -6.08203125 106.13671875 C-7.23179531 103.83719062 -7.20774045 102.5495306 -7.20901489 99.99266052 C-7.21183472 99.12469849 -7.21465454 98.25673645 -7.21755981 97.36247253 C-7.21553558 96.40810806 -7.21351135 95.45374359 -7.21142578 94.47045898 C-7.2131781 93.46715546 -7.21493042 92.46385193 -7.21673584 91.43014526 C-7.22115013 88.10185027 -7.21821805 84.77360807 -7.21484375 81.4453125 C-7.21551686 79.14128102 -7.21648694 76.83724962 -7.21774292 74.53321838 C-7.21921928 69.70028 -7.21706712 64.86736007 -7.21240234 60.03442383 C-7.20670191 53.8242086 -7.20998646 47.61403655 -7.21597481 41.4038229 C-7.21957937 36.64536714 -7.21844237 31.88692171 -7.21584702 27.12846565 C-7.21517762 24.83780983 -7.2160066 22.54715308 -7.21832657 20.25649834 C-7.22085172 17.06216809 -7.21701459 13.86790891 -7.21142578 10.67358398 C-7.21345001 9.71719528 -7.21547424 8.76080658 -7.21755981 7.7754364 C-7.21473999 6.91029419 -7.21192017 6.04515198 -7.20901489 5.15379333 C-7.20863787 4.39775535 -7.20826084 3.64171736 -7.20787239 2.86276913 C-6.90787244 -1.25206193 -3.31752014 0.00563246 0 0 Z " fill="#4049A5" transform="translate(720.08203125,458.86328125)"/>
<path d="M0 0 C2.64 0 5.28 0 8 0 C8.02712153 1.916588 8.04645097 3.8332873 8.0625 5.75 C8.07410156 6.81734375 8.08570313 7.8846875 8.09765625 8.984375 C8.01510087 11.53368501 7.74617558 13.57933591 7 16 C4.69 16 2.38 16 0 16 C-0.33 16.66 -0.66 17.32 -1 18 C-3.64 17.67 -6.28 17.34 -9 17 C-9.86325845 14.58287634 -10.1132654 13.35009306 -9.3125 10.875 C-7.7809268 8.68703828 -6.45234885 7.98093954 -4 7 C-4.33 6.01 -4.66 5.02 -5 4 C-3.35 4 -1.7 4 0 4 C0 2.68 0 1.36 0 0 Z " fill="#3F50D1" transform="translate(898,490)"/>
<path d="M0 0 C6.32866561 3.98981093 15.13639731 11.25716962 18.53125 18.046875 C19.14891523 23.52644798 19.57556644 27.67277442 16.15625 32.171875 C11.6130808 35.41699586 9.02415438 35.13547023 3.53125 35.046875 C4.85125 34.056875 6.17125 33.066875 7.53125 32.046875 C7.20125 31.386875 6.87125 30.726875 6.53125 30.046875 C7.52125 30.046875 8.51125 30.046875 9.53125 30.046875 C9.53125 29.056875 9.53125 28.066875 9.53125 27.046875 C10.19125 27.046875 10.85125 27.046875 11.53125 27.046875 C11.03625 23.581875 11.03625 23.581875 10.53125 20.046875 C11.129375 20.35625 11.7275 20.665625 12.34375 20.984375 C14.62081772 22.14897204 14.62081772 22.14897204 17.53125 23.046875 C15.77735135 18.39904358 14.77437703 15.82685478 10.53125 13.046875 C10.53125 12.386875 10.53125 11.726875 10.53125 11.046875 C9.603125 11.005625 8.675 10.964375 7.71875 10.921875 C6.666875 10.633125 5.615 10.344375 4.53125 10.046875 C2.90625 7.109375 2.90625 7.109375 1.53125 4.046875 C-3.52098271 0.48409769 -10.61740389 1.48280795 -16.46875 2.046875 C-19.19733794 3.05580642 -20.30572934 4.00077438 -22.46875 6.046875 C-23.396875 6.913125 -23.396875 6.913125 -24.34375 7.796875 C-24.715 8.209375 -25.08625 8.621875 -25.46875 9.046875 C-26.12875 8.716875 -26.78875 8.386875 -27.46875 8.046875 C-26.03646184 6.72868946 -24.59772516 5.41750796 -23.15625 4.109375 C-22.35574219 3.37847656 -21.55523437 2.64757812 -20.73046875 1.89453125 C-15.34585181 -2.5043009 -6.31285034 -2.43723969 0 0 Z " fill="#4752B5" transform="translate(246.46875,458.953125)"/>
<path d="M0 0 C0.33 0 0.66 0 1 0 C1.33 34.32 1.66 68.64 2 104 C10.415 103.505 10.415 103.505 19 103 C19.33 96.73 19.66 90.46 20 84 C20.33 84 20.66 84 21 84 C21.33 90.93 21.66 97.86 22 105 C17.45428445 106.81828622 15.16340545 107.29607159 10.4375 107.3125 C9.32246094 107.32925781 8.20742188 107.34601563 7.05859375 107.36328125 C3.47049438 106.93710853 2.38158903 106.71608832 0 104 C-0.60607414 100.71207529 -0.50395805 97.4465443 -0.45410156 94.11254883 C-0.45468567 93.09773941 -0.45526978 92.08292999 -0.45587158 91.03736877 C-0.45308077 87.67691052 -0.42194078 84.3173349 -0.390625 80.95703125 C-0.38316618 78.62961817 -0.37747156 76.30219882 -0.37347412 73.97477722 C-0.35818964 67.84419464 -0.31888314 61.71399015 -0.2746582 55.58355713 C-0.23376641 49.32984533 -0.21547611 43.07607253 -0.1953125 36.82226562 C-0.15239198 24.54801082 -0.0841063 12.27403683 0 0 Z " fill="#CDD4FE" transform="translate(712,461)"/>
<path d="M0 0 C0.66 0.66 1.32 1.32 2 2 C1.67 2.33 1.34 2.66 1 3 C1.66 3.33 2.32 3.66 3 4 C3 4.66 3 5.32 3 6 C2.01 6.33 1.02 6.66 0 7 C-0.73323796 9.01508358 -0.73323796 9.01508358 -1 11 C0.32 10.67 1.64 10.34 3 10 C3 10.99 3 11.98 3 13 C2.34 13 1.68 13 1 13 C1.66 14.65 2.32 16.3 3 18 C-3.0546875 18.1953125 -3.0546875 18.1953125 -5 18 C-5.66 17.34 -6.32 16.68 -7 16 C-7.99 15.34 -8.98 14.68 -10 14 C-10 11 -10 11 -8 9 C-7.67 8.01 -7.34 7.02 -7 6 C-6.34 6 -5.68 6 -5 6 C-4.731875 5.38125 -4.46375 4.7625 -4.1875 4.125 C-3 2 -3 2 0 0 Z " fill="#3B4DCF" transform="translate(799,494)"/>
<path d="M0 0 C4.31730413 0.47409648 6.33647461 3.03396703 9.25 6.0625 C10.14203125 6.98160156 11.0340625 7.90070312 11.953125 8.84765625 C12.62859375 9.55792969 13.3040625 10.26820313 14 11 C13.34 11.66 12.68 12.32 12 13 C11.2575 12.319375 10.515 11.63875 9.75 10.9375 C7.25948283 8.7413656 7.25948283 8.7413656 4.8125 9.1875 C3.52847431 9.76309772 2.25858165 10.37070917 1 11 C1 10.34 1 9.68 1 9 C0.01 9 -0.98 9 -2 9 C-2.33 9.99 -2.66 10.98 -3 12 C-3.721875 11.731875 -4.44375 11.46375 -5.1875 11.1875 C-8.26390537 10.65105845 -8.26390537 10.65105845 -10.8125 13.4375 C-11.534375 14.283125 -12.25625 15.12875 -13 16 C-13.66 15.67 -14.32 15.34 -15 15 C-13.54782324 13.49403892 -12.08807139 11.99537896 -10.625 10.5 C-9.81289062 9.6646875 -9.00078125 8.829375 -8.1640625 7.96875 C-6 6 -6 6 -4 6 C-3.67 5.01 -3.34 4.02 -3 3 C-2.34 3 -1.68 3 -1 3 C-0.67 2.01 -0.34 1.02 0 0 Z M-7 11 C-6.34 11.66 -5.68 12.32 -5 13 C-5.66 13 -6.32 13 -7 13 C-7 12.34 -7 11.68 -7 11 Z " fill="#E1E4F3" transform="translate(203,545)"/>
<path d="M0 0 C4.41832494 1.35004373 6.64842388 2.99361106 9 7 C9.5975849 11.70598109 9.63330607 14.5218269 7 18.5 C6.01 19.7375 6.01 19.7375 5 21 C3 19.375 3 19.375 1 17 C0.8125 13.9375 0.8125 13.9375 1 11 C0.67 10.01 0.34 9.02 0 8 C0.66 8 1.32 8 2 8 C1.01 5.69 0.02 3.38 -1 1 C-0.67 0.67 -0.34 0.34 0 0 Z " fill="#262D54" transform="translate(256,532)"/>
<path d="M0 0 C-0.3125 2.375 -0.3125 2.375 -1 5 C-1.99 5.66 -2.98 6.32 -4 7 C-3.49396008 4.83125748 -3.00016187 3.00032373 -2 1 C-4.77315591 1.05996013 -7.54089706 1.14693312 -10.3125 1.25 C-11.09818359 1.26417969 -11.88386719 1.27835937 -12.69335938 1.29296875 C-17.37763935 1.38442829 -17.37763935 1.38442829 -21.04296875 4.046875 C-21.35878906 4.69140625 -21.67460938 5.3359375 -22 6 C-21.01 6.33 -20.02 6.66 -19 7 C-22.38823529 10.89019608 -22.38823529 10.89019608 -25.4375 11.4375 C-31.34098565 12.73338709 -34.79066518 19.26929944 -38.29296875 23.83984375 C-40.3767745 26.47678787 -42.48426423 28.77177689 -45 31 C-45.66 31 -46.32 31 -47 31 C-47 30.34 -47 29.68 -47 29 C-46.34 29 -45.68 29 -45 29 C-44.7306665 28.40848145 -44.46133301 27.81696289 -44.18383789 27.20751953 C-43.00132468 25.00247015 -41.77937778 23.48358441 -40.05859375 21.6796875 C-39.19113525 20.75941772 -39.19113525 20.75941772 -38.30615234 19.82055664 C-37.03970253 18.50198615 -35.77040293 17.18614794 -34.49853516 15.87280273 C-31.67469154 12.93584838 -29.10455895 10.15086625 -26.77734375 6.79296875 C-20.12217639 -2.75931459 -10.55286552 -0.98909338 0 0 Z " fill="#4250C1" transform="translate(780,490)"/>
<path d="M0 0 C0.33 0 0.66 0 1 0 C1.33 16.5 1.66 33 2 50 C2.66 49.34 3.32 48.68 4 48 C4.8971875 47.8453125 4.8971875 47.8453125 5.8125 47.6875 C9.81332861 46.43009672 12.29067803 43.24975776 14.3125 39.6875 C14.539375 39.130625 14.76625 38.57375 15 38 C15.99 38 16.98 38 18 38 C16.66465724 40.94113469 15.17535119 43.10845169 12.9609375 45.453125 C12.09082031 46.38125 12.09082031 46.38125 11.203125 47.328125 C10.59984375 47.96234375 9.9965625 48.5965625 9.375 49.25 C8.45847656 50.22453125 8.45847656 50.22453125 7.5234375 51.21875 C6.01971926 52.81645063 4.51184263 54.40999149 3 56 C2.01 55.67 1.02 55.34 0 55 C0 36.85 0 18.7 0 0 Z " fill="#C7D0EF" transform="translate(732,462)"/>
<path d="M0 0 C2.1484375 1.953125 2.1484375 1.953125 4.296875 3.90625 C6.22360515 5.36024492 6.22360515 5.36024492 10 5 C10 5.66 10 6.32 10 7 C9.34 7 8.68 7 8 7 C9.10041919 8.68681738 9.10041919 8.68681738 11 10 C14.05890142 10.24050807 14.05890142 10.24050807 17 9 C18.93469849 6.04928156 18.93469849 6.04928156 20 3 C20.99 3.66 21.98 4.32 23 5 C22.34 5.66 21.68 6.32 21 7 C21 7.99 21 8.98 21 10 C20.01 11.485 20.01 11.485 19 13 C18.34 13 17.68 13 17 13 C17 13.99 17 14.98 17 16 C10.96539812 15.71911012 8.51014282 13.13441354 4.625 8.9375 C4.07972656 8.36966797 3.53445312 7.80183594 2.97265625 7.21679688 C1.63675147 5.82229978 0.31673412 4.41261282 -1 3 C-0.67 2.01 -0.34 1.02 0 0 Z " fill="#DFE0E6" transform="translate(222,527)"/>
<path d="M0 0 C5.61 0 11.22 0 17 0 C17 0.33 17 0.66 17 1 C15.92878906 1.06058594 14.85757813 1.12117188 13.75390625 1.18359375 C12.35675609 1.26798537 10.95962143 1.35263406 9.5625 1.4375 C8.50192383 1.49647461 8.50192383 1.49647461 7.41992188 1.55664062 C3.91309581 1.47624438 3.91309581 1.47624438 1 3 C0.87598086 5.17731389 0.8219849 7.35863454 0.79467773 9.53930664 C0.78477814 10.22220261 0.77487854 10.90509857 0.76467896 11.60868835 C0.73298065 13.87580853 0.70827387 16.14294969 0.68359375 18.41015625 C0.6630314 19.97815001 0.64203512 21.54613813 0.62062073 23.11412048 C0.56532576 27.24870248 0.51594938 31.38333511 0.46777344 35.51800537 C0.41761247 39.73405483 0.36189826 43.95003043 0.30664062 48.16601562 C0.1989683 56.44394803 0.09754365 64.72194208 0 73 C-0.33 73 -0.66 73 -1 73 C-1.01030746 72.19011627 -1.02061493 71.38023254 -1.03123474 70.54580688 C-1.12910365 62.92339284 -1.23160281 55.30106196 -1.33933926 47.67878151 C-1.39456684 43.75984151 -1.44798657 39.84089405 -1.49731445 35.921875 C-1.54496046 32.1417112 -1.59730333 28.36163926 -1.65294075 24.58158493 C-1.67336324 23.13747817 -1.69207651 21.69334623 -1.70907402 20.2491951 C-1.73312006 18.23068749 -1.76373877 16.21226138 -1.79467773 14.19384766 C-1.81022202 13.04357086 -1.8257663 11.89329407 -1.84178162 10.7081604 C-1.81953729 8.0323535 -1.81953729 8.0323535 -3 6 C-2.01 4.02 -1.02 2.04 0 0 Z " fill="#EBECFE" transform="translate(863,488)"/>
<path d="M0 0 C0.598125 0.309375 1.19625 0.61875 1.8125 0.9375 C4.08956772 2.10209704 4.08956772 2.10209704 7 3 C7.8125 5.6875 7.8125 5.6875 8 9 C5.84614331 11.61955544 4.04053406 13.47973297 1 15 C-1.6723621 15.13415472 -4.32250488 15.04318541 -7 15 C-5.68 14.01 -4.36 13.02 -3 12 C-3.33 11.34 -3.66 10.68 -4 10 C-3.01 10 -2.02 10 -1 10 C-1 9.01 -1 8.02 -1 7 C-0.34 7 0.32 7 1 7 C0.67 4.69 0.34 2.38 0 0 Z " fill="#4051C9" transform="translate(257,479)"/>
<path d="M0 0 C0.66 0.33 1.32 0.66 2 1 C1.484375 1.99 0.96875 2.98 0.4375 4 C-1.33017738 8.17814653 -1.49563644 11.69437995 0 16 C2.22802512 18.70976029 4.30460647 20.5557208 7.25 22.4375 C9 24 9 24 9.875 27.0625 C9.91625 28.031875 9.9575 29.00125 10 30 C8 32 8 32 6 33 C6 33.66 6 34.32 6 35 C5.195625 35.12375 4.39125 35.2475 3.5625 35.375 C2.716875 35.58125 1.87125 35.7875 1 36 C0.67 36.66 0.34 37.32 0 38 C-2.3140622 38.73075648 -4.64828869 39.40138258 -7 40 C-5.62947795 37.25895591 -3.52739857 36.63994468 -0.921875 35.21875 C2.19546203 33.24190213 4.49048738 30.6931355 7 28 C5.60366893 24.81440048 3.95442507 22.76056155 1.4375 20.375 C-2.88402454 16.26011801 -2.88402454 16.26011801 -3.203125 12.79296875 C-3.29502506 7.68485707 -3.33602297 4.17002871 0 0 Z " fill="#3E47B7" transform="translate(180,503)"/>
<path d="M0 0 C0 0.66 0 1.32 0 2 C-0.59167969 2.24234375 -1.18335938 2.4846875 -1.79296875 2.734375 C-9.67399168 5.89943541 -9.67399168 5.89943541 -15.11328125 12.1171875 C-16.25409066 15.82607448 -16.29170298 19.34735044 -16.25 23.1875 C-16.25773438 23.91130859 -16.26546875 24.63511719 -16.2734375 25.38085938 C-16.39656688 29.65350659 -16.39656688 29.65350659 -14 33 C-14.375 35.125 -14.375 35.125 -15 37 C-20.35514327 30.24786284 -19.83474648 22.23400411 -19 14 C-16.47519372 7.66469274 -10.94672596 3.9543436 -5 1 C-2 0 -2 0 0 0 Z " fill="#3E49B3" transform="translate(804,522)"/>
<path d="M0 0 C2.0625 0.4375 2.0625 0.4375 4 1 C3.94199219 1.73605469 3.88398438 2.47210937 3.82421875 3.23046875 C3.38447014 8.75907941 3.38447014 8.75907941 5.11328125 13.84375 C6.60903828 15.35673892 6.60903828 15.35673892 9 17 C6 17 6 17 3.08203125 14.375 C1.98449244 13.25750594 0.89492105 12.13214357 -0.1875 11 C-0.74630859 10.42765625 -1.30511719 9.8553125 -1.88085938 9.265625 C-3.26073093 7.85037212 -4.63126734 6.42602845 -6 5 C-5.195625 4.360625 -4.39125 3.72125 -3.5625 3.0625 C-1.7249496 1.59396498 -1.7249496 1.59396498 0 0 Z " fill="#192145" transform="translate(211,540)"/>
<path d="M0 0 C0 3 0 3 -1.4375 4.5 C-1.953125 4.995 -2.46875 5.49 -3 6 C-3.96070434 8.88211302 -4.10581883 10.69850044 -4.0625 13.6875 C-4.05347656 14.49574219 -4.04445313 15.30398438 -4.03515625 16.13671875 C-4.02355469 16.75160156 -4.01195313 17.36648438 -4 18 C-2.52093108 18.02689216 -1.04172517 18.04634621 0.4375 18.0625 C1.67306641 18.07990234 1.67306641 18.07990234 2.93359375 18.09765625 C4.99163938 18.23267348 4.99163938 18.23267348 6 17 C7.99958364 16.95919217 10.00045254 16.95745644 12 17 C5.24197122 20.49342797 -0.43158925 22.77133018 -8 21 C-8.55497653 14.34028158 -7.74355784 9.6026896 -4 4 C-1.75 1.5 -1.75 1.5 0 0 Z " fill="#454EB2" transform="translate(124,497)"/>
<path d="M0 0 C11.84470327 -0.56905158 11.84470327 -0.56905158 17 3 C19.1610211 6.24153166 19.64247553 7.23692901 19 11 C16.27208192 14.06890783 13.84560032 15.24497855 9.875 15.875 C6 16 6 16 3 14 C3.90492188 13.96132813 3.90492188 13.96132813 4.828125 13.921875 C10.04317023 13.57461091 10.04317023 13.57461091 14.5625 11.125 C16.28015468 9.01344945 16.28015468 9.01344945 16 6 C15.01 5.67 14.02 5.34 13 5 C13 4.34 13 3.68 13 3 C11.453125 3.061875 11.453125 3.061875 9.875 3.125 C6.13170373 3.00424851 3.46265453 2.35127982 0 1 C0 0.67 0 0.34 0 0 Z " fill="#DDE1FB" transform="translate(814,503)"/>
<path d="M0 0 C3.52268543 0.08341514 4.18168936 0.43314202 7.1875 2.6875 C9.1875 5.4375 9.1875 5.4375 9.1875 9.4375 C10.1775 9.4375 11.1675 9.4375 12.1875 9.4375 C12.5175 8.4475 12.8475 7.4575 13.1875 6.4375 C15.25 5.75 15.25 5.75 17.1875 5.4375 C17.001875 6.22125 16.81625 7.005 16.625 7.8125 C15.92787734 10.40839775 15.92787734 10.40839775 17.1875 12.4375 C14 12.75 14 12.75 10.1875 12.4375 C7.5625 10.1875 7.5625 10.1875 5.1875 7.4375 C1.56472607 4.09340099 -0.88452831 2.89591597 -5.8125 2.4375 C-3.8125 0.4375 -3.8125 0.4375 0 0 Z " fill="#3A49B9" transform="translate(238.8125,480.5625)"/>
<path d="M0 0 C0.33 0 0.66 0 1 0 C1.33 6.93 1.66 13.86 2 21 C-2.59291089 22.83716436 -4.85201549 23.27194476 -9.625 23.25 C-10.75164063 23.25515625 -11.87828125 23.2603125 -13.0390625 23.265625 C-16 23 -16 23 -19 21 C-18.67 20.34 -18.34 19.68 -18 19 C-12.39 19 -6.78 19 -1 19 C-0.67 12.73 -0.34 6.46 0 0 Z " fill="#D9E0FC" transform="translate(732,545)"/>
<path d="M0 0 C2 3 2 3 3 6 C1.68 6.33 0.36 6.66 -1 7 C-1 6.01 -1 5.02 -1 4 C-1.99 4.495 -1.99 4.495 -3 5 C-2.67 5.99 -2.34 6.98 -2 8 C-3.32 8 -4.64 8 -6 8 C-6 8.99 -6 9.98 -6 11 C-8.53184488 13.35723489 -9.47190093 14 -13 14 C-13 12 -13 12 -11.5 10.375 C-11.005 9.92125 -10.51 9.4675 -10 9 C-10.66 8.34 -11.32 7.68 -12 7 C-11.30132813 6.66226563 -10.60265625 6.32453125 -9.8828125 5.9765625 C-8.97273437 5.53054688 -8.06265625 5.08453125 -7.125 4.625 C-6.22007812 4.18414063 -5.31515625 3.74328125 -4.3828125 3.2890625 C-1.90465528 2.09497301 -1.90465528 2.09497301 0 0 Z " fill="#E3E6F2" transform="translate(832,558)"/>
<path d="M0 0 C0.66 0 1.32 0 2 0 C2.05392397 2.77109307 2.09363455 5.54113818 2.125 8.3125 C2.14175781 9.09818359 2.15851562 9.88386719 2.17578125 10.69335938 C2.18222656 11.45068359 2.18867187 12.20800781 2.1953125 12.98828125 C2.20578613 13.68477783 2.21625977 14.38127441 2.22705078 15.09887695 C2 17 2 17 0 20 C-2.609621 20.38411275 -5.0058074 20.60293197 -7.625 20.6875 C-8.68460938 20.73874023 -8.68460938 20.73874023 -9.765625 20.79101562 C-11.50985688 20.87351308 -13.25490395 20.93843335 -15 21 C-12.37548383 18.37548383 -10.5122172 18.4167132 -6.875 17.875 C-4.93625 17.58625 -2.9975 17.2975 -1 17 C-0.67 11.39 -0.34 5.78 0 0 Z " fill="#D1D9F8" transform="translate(907,489)"/>
<path d="M0 0 C4.28792401 0.29938208 6.40067914 3.10070594 9.25 6.0625 C10.14203125 6.98160156 11.0340625 7.90070312 11.953125 8.84765625 C12.62859375 9.55792969 13.3040625 10.26820313 14 11 C13.34 11.66 12.68 12.32 12 13 C11.2575 12.319375 10.515 11.63875 9.75 10.9375 C7.25948283 8.7413656 7.25948283 8.7413656 4.8125 9.1875 C3.52847431 9.76309772 2.25858165 10.37070917 1 11 C1 9.35 1 7.7 1 6 C1.66 6 2.32 6 3 6 C3 5.01 3 4.02 3 3 C1.68 2.34 0.36 1.68 -1 1 C-0.67 0.67 -0.34 0.34 0 0 Z " fill="#DCDEE6" transform="translate(203,545)"/>
<path d="M0 0 C-1.875 4.875 -1.875 4.875 -3 6 C-3.32460261 10.03083011 -3.32460261 10.03083011 -3 14 C-0.09907498 15.93395001 0.89674737 16.30131941 4.1875 16.625 C5.445625 16.74875 6.70375 16.8725 8 17 C8 17.33 8 17.66 8 18 C3.35746456 18.46425354 -0.65924647 18.80175799 -4.5625 15.9375 C-7 13 -7 13 -7.6875 9.5625 C-6.91407795 5.55476755 -4.85755733 0 0 0 Z " fill="#CCD4F6" transform="translate(810,535)"/>
<path d="M0 0 C0.99386719 0.00902344 1.98773437 0.01804687 3.01171875 0.02734375 C4.15060547 0.04474609 4.15060547 0.04474609 5.3125 0.0625 C5.33934312 2.87506281 5.35926188 5.68737241 5.375 8.5 C5.38337891 9.30244141 5.39175781 10.10488281 5.40039062 10.93164062 C5.4090143 12.97545221 5.3647815 15.01933902 5.3125 17.0625 C4.3125 18.0625 4.3125 18.0625 2.46484375 18.16015625 C0.4140625 18.12760417 -1.63671875 18.09505208 -3.6875 18.0625 C-3.6875 17.7325 -3.6875 17.4025 -3.6875 17.0625 C-1.3775 17.0625 0.9325 17.0625 3.3125 17.0625 C3.6425 11.7825 3.9725 6.5025 4.3125 1.0625 C1.6725 1.0625 -0.9675 1.0625 -3.6875 1.0625 C-3.6875 2.3825 -3.6875 3.7025 -3.6875 5.0625 C-4.6775 5.3925 -5.6675 5.7225 -6.6875 6.0625 C-6.6875 5.4025 -6.6875 4.7425 -6.6875 4.0625 C-7.6775 3.7325 -8.6675 3.4025 -9.6875 3.0625 C-7.75082354 -0.81085293 -3.83275078 -0.04509119 0 0 Z " fill="#4751AB" transform="translate(901.6875,488.9375)"/>
<path d="M0 0 C3 0 3 0 5 1 C-3.75911747 7.40911034 -11.33192612 7.26633194 -22 7 C-22 6.34 -22 5.68 -22 5 C-15.07 4.34 -8.14 3.68 -1 3 C-0.67 2.01 -0.34 1.02 0 0 Z " fill="#4952AD" transform="translate(824,560)"/>
<path d="M0 0 C1.98 0 3.96 0 6 0 C5.25 2.9375 5.25 2.9375 4 6 C1.875 6.875 1.875 6.875 0 7 C0 7.99 0 8.98 0 10 C-0.99 10 -1.98 10 -3 10 C-3.33 9.01 -3.66 8.02 -4 7 C-3.67 6.34 -3.34 5.68 -3 5 C-3.99 4.67 -4.98 4.34 -6 4 C-4.35 4 -2.7 4 -1 4 C-0.67 2.68 -0.34 1.36 0 0 Z " fill="#4254D7" transform="translate(772,491)"/>
<path d="M0 0 C0.99 0.66 1.98 1.32 3 2 C0.74824599 7.26199359 -3.29046494 10.8652857 -8 14 C-11.00213645 14.6528534 -12.91130702 14.44926443 -16 14 C-14.71567636 11.43135272 -13.63365249 11.053461 -11 10 C-9.68 10 -8.36 10 -7 10 C-6.67 9.34 -6.34 8.68 -6 8 C-5.34 8.33 -4.68 8.66 -4 9 C-4 8.34 -4 7.68 -4 7 C-3.34 6.360625 -2.68 5.72125 -2 5.0625 C0.34807292 3.11987668 0.34807292 3.11987668 0 0 Z " fill="#DBE1F6" transform="translate(185,527)"/>
<path d="M0 0 C0.99 0 1.98 0 3 0 C3 1.65 3 3.3 3 5 C4.65 5.33 6.3 5.66 8 6 C8.12375 7.1446875 8.12375 7.1446875 8.25 8.3125 C9.14615794 11.52373261 10.21611025 12.29374499 13 14 C12.67 14.99 12.34 15.98 12 17 C10.01138225 15.09236669 8.03434282 13.17484089 6.0625 11.25 C5.49853516 10.71117187 4.93457031 10.17234375 4.35351562 9.6171875 C3.81533203 9.08867188 3.27714844 8.56015625 2.72265625 8.015625 C1.97640991 7.29294434 1.97640991 7.29294434 1.21508789 6.55566406 C-0.2164831 4.722839 -0.67317222 3.29107769 -1 1 C-0.67 0.67 -0.34 0.34 0 0 Z " fill="#1F2440" transform="translate(120,521)"/>
<path d="M0 0 C4.75 0.75 4.75 0.75 7 3 C10.50774471 10.60011353 9.74106559 19.29075304 7 27 C6.01 26.67 5.02 26.34 4 26 C4.495 24.845 4.99 23.69 5.5 22.5 C7.15173811 18.05603794 7.46511428 14.72866188 7 10 C5.61114752 7.18219466 5.61114752 7.18219466 4 5 C4 4.34 4 3.68 4 3 C2.68 2.67 1.36 2.34 0 2 C0 1.34 0 0.68 0 0 Z " fill="#16205B" transform="translate(166,459)"/>
<path d="M0 0 C0.12375 0.639375 0.2475 1.27875 0.375 1.9375 C0.684375 2.9584375 0.684375 2.9584375 1 4 C1.66 4.33 2.32 4.66 3 5 C3.309375 5.639375 3.61875 6.27875 3.9375 6.9375 C4.95345922 9.31971493 4.95345922 9.31971493 8 11 C8.70211894 12.65204456 9.36971413 14.31923769 10 16 C10.66 16.66 11.32 17.32 12 18 C11.67 18.99 11.34 19.98 11 21 C10.65219482 20.52578613 10.30438965 20.05157227 9.94604492 19.56298828 C8.36492618 17.41321464 6.77632237 15.26908555 5.1875 13.125 C4.64029297 12.37863281 4.09308594 11.63226562 3.52929688 10.86328125 C2.99755859 10.14785156 2.46582031 9.43242188 1.91796875 8.6953125 C1.43094482 8.03547363 0.9439209 7.37563477 0.44213867 6.69580078 C-1.08059521 4.74802845 -1.08059521 4.74802845 -4 3 C-4.66 3 -5.32 3 -6 3 C-6 2.34 -6 1.68 -6 1 C-3 0 -3 0 0 0 Z " fill="#414DB2" transform="translate(744,534)"/>
<path d="M0 0 C0.3501774 6.65337052 -0.1186435 11.69177587 -4.6875 16.9375 C-5.3371875 17.4634375 -5.3371875 17.4634375 -6 18 C-5.74438677 15.6568787 -5.40729228 13.32156597 -5 11 C-4.34 10.67 -3.68 10.34 -3 10 C-2.59270772 7.67843403 -2.25561323 5.3431213 -2 3 C-5.63 3 -9.26 3 -13 3 C-13 2.67 -13 2.34 -13 2 C-11.39658445 1.66307215 -9.79223445 1.33058907 -8.1875 1 C-7.29417969 0.814375 -6.40085937 0.62875 -5.48046875 0.4375 C-3 0 -3 0 0 0 Z " fill="#CCD4F6" transform="translate(833,530)"/>
<path d="M0 0 C3.07028004 0.36120942 5.32395227 1.15549709 8.125 2.5 C12.85374504 4.64942956 17.87689176 4.7313379 23 5 C22.67 5.66 22.34 6.32 22 7 C9.24646226 6.27122642 9.24646226 6.27122642 4.8125 4.875 C2.08323032 3.66974762 2.08323032 3.66974762 0 5 C-0.5625 3.0625 -0.5625 3.0625 -1 1 C-0.67 0.67 -0.34 0.34 0 0 Z " fill="#E0E7FE" transform="translate(790,562)"/>
<path d="M0 0 C1.65 0 3.3 0 5 0 C4.35546875 0.78632812 3.7109375 1.57265625 3.046875 2.3828125 C0.21932266 6.62414101 0.33224243 10.91054802 0.25 15.875 C0.22035156 16.75414062 0.19070313 17.63328125 0.16015625 18.5390625 C0.08994441 20.69222545 0.04265119 22.84611485 0 25 C-0.99 25 -1.98 25 -3 25 C-2.84080078 24.42709229 -2.68160156 23.85418457 -2.51757812 23.26391602 C-2.01177802 21.05151771 -1.81479312 19.04125373 -1.71875 16.77734375 C-1.68136719 15.99166016 -1.64398437 15.20597656 -1.60546875 14.39648438 C-1.53498901 12.75326237 -1.4646773 11.11003316 -1.39453125 9.46679688 C-1.35714844 8.68240234 -1.31976562 7.89800781 -1.28125 7.08984375 C-1.25095703 6.37691162 -1.22066406 5.66397949 -1.18945312 4.92944336 C-1 3 -1 3 0 0 Z " fill="#4651B3" transform="translate(732,539)"/>
<path d="M0 0 C0.33 1.32 0.66 2.64 1 4 C0.01 4.33 -0.98 4.66 -2 5 C-2.103125 6.093125 -2.20625 7.18625 -2.3125 8.3125 C-3.19760479 13.05988024 -3.19760479 13.05988024 -6 15 C-9.14930893 16.04976964 -11.38814456 16.10131595 -14.6875 16.0625 C-15.68136719 16.05347656 -16.67523437 16.04445313 -17.69921875 16.03515625 C-18.83810547 16.01775391 -18.83810547 16.01775391 -20 16 C-20 15.67 -20 15.34 -20 15 C-19.33613281 14.96261719 -18.67226563 14.92523437 -17.98828125 14.88671875 C-10.87596616 14.55291782 -10.87596616 14.55291782 -5 11 C-4.58274322 7.37400578 -4.58274322 7.37400578 -5 4 C-3.68 4 -2.36 4 -1 4 C-0.67 2.68 -0.34 1.36 0 0 Z " fill="#E4E6F5" transform="translate(830,536)"/>
<path d="M0 0 C5.17721815 4.69185395 8.96203734 10.33164656 13 16 C13.99535194 17.33680675 14.99351034 18.67155868 16 20 C15.67 20.66 15.34 21.32 15 22 C13.76302083 20.50260417 12.52604167 19.00520833 11.2890625 17.5078125 C10.24749008 16.28948839 9.13339903 15.13339903 8 14 C7.34 13.34 6.68 12.68 6 12 C6 11.01 6 10.02 6 9 C5.34 9 4.68 9 4 9 C0.88002198 5.69649386 0 4.67590167 0 0 Z " fill="#414CB0" transform="translate(757,527)"/>
<path d="M0 0 C2.00720923 0.28674418 4.0085944 0.61866701 6 1 C5.566875 1.7734375 5.566875 1.7734375 5.125 2.5625 C3.71219973 5.62356725 2.8751483 8.74944918 2 12 C0 8.25 0 8.25 0 6 C-0.99 5.67 -1.98 5.34 -3 5 C-1.125 1.125 -1.125 1.125 0 0 Z " fill="#DCDFED" transform="translate(786,496)"/>
<path d="M0 0 C2.3431213 0.25561323 4.67843403 0.59270772 7 1 C7.33 1.66 7.66 2.32 8 3 C7.071875 3.7734375 7.071875 3.7734375 6.125 4.5625 C3.52523258 7.54458615 2.88050877 10.18446201 2 14 C1.67 14 1.34 14 1 14 C0.67 9.38 0.34 4.76 0 0 Z " fill="#4656D5" transform="translate(172,541)"/>
<path d="M0 0 C5.36088888 1.1487619 7.31268011 3.3371354 10.54296875 7.4453125 C12.00701988 9.25764865 12.00701988 9.25764865 14.875 9.9375 C15.926875 9.9684375 15.926875 9.9684375 17 10 C16 12 16 12 14.12597656 12.78076172 C13.4244043 12.85311035 12.72283203 12.92545898 12 13 C9.7041252 11.10263197 7.76844219 9.28347765 5.75 7.125 C5.19570312 6.55652344 4.64140625 5.98804688 4.0703125 5.40234375 C0 1.18165025 0 1.18165025 0 0 Z " fill="#EBEBF5" transform="translate(148,520)"/>
<path d="M0 0 C0.99 0.66 1.98 1.32 3 2 C3.29296875 4.1640625 3.29296875 4.1640625 3.1875 6.625 C3.16042969 7.44226563 3.13335938 8.25953125 3.10546875 9.1015625 C3.07066406 9.72804688 3.03585937 10.35453125 3 11 C2.34 11 1.68 11 1 11 C0.34 13.31 -0.32 15.62 -1 18 C-1.99 18 -2.98 18 -4 18 C-3.79503906 17.45472656 -3.59007812 16.90945313 -3.37890625 16.34765625 C-1.41324021 10.84567235 -0.46218398 5.8235181 0 0 Z " fill="#3746B6" transform="translate(833,529)"/>
<path d="M0 0 C0.33 0.66 0.66 1.32 1 2 C-1.59717392 5.17432368 -4.0270515 6.09388894 -8 7 C-19.82663008 7.77577627 -19.82663008 7.77577627 -24 5 C-24.75 2.875 -24.75 2.875 -25 1 C-24.195625 1.66 -23.39125 2.32 -22.5625 3 C-18.51410432 5.68301695 -14.71254075 5.69663646 -10 5 C-6.30089805 3.88100384 -3.21885188 2.14590126 0 0 Z " fill="#424AAB" transform="translate(828,547)"/>
<path d="M0 0 C0.66 0.33 1.32 0.66 2 1 C2 1.66 2 2.32 2 3 C1.01 3.495 1.01 3.495 0 4 C-0.474375 4.825 -0.94875 5.65 -1.4375 6.5 C-3 9 -3 9 -6 10 C-5.67 12.64 -5.34 15.28 -5 18 C-7.0625 16.3125 -7.0625 16.3125 -9 14 C-8.76296538 9.55560085 -6.9193626 7.35868721 -3.9375 4.1875 C-3.20402344 3.39730469 -2.47054687 2.60710938 -1.71484375 1.79296875 C-1.14894531 1.20128906 -0.58304688 0.60960937 0 0 Z " fill="#D7DFF6" transform="translate(764,510)"/>
<path d="M0 0 C0.99 0.33 1.98 0.66 3 1 C1.625 2.5 1.625 2.5 0 4 C-0.66 4 -1.32 4 -2 4 C-3.75163456 7.77222089 -4.22490027 10.666639 -4.125 14.8125 C-4.10695312 15.78832031 -4.08890625 16.76414062 -4.0703125 17.76953125 C-4.04710937 18.50558594 -4.02390625 19.24164062 -4 20 C-4.66 20 -5.32 20 -6 20 C-8.10020726 15.79958547 -7.35832945 10.43331782 -6.25 6 C-5 4 -5 4 -2.9375 3.375 C-2.298125 3.25125 -1.65875 3.1275 -1 3 C-0.67 2.01 -0.34 1.02 0 0 Z " fill="#DDE2FB" transform="translate(182,499)"/>
<path d="M0 0 C2 1.375 2 1.375 4 4 C4.70183707 8.44743072 5.00947154 12.47159296 2.47265625 16.3125 C1.98667969 16.869375 1.50070313 17.42625 1 18 C0.875 11.25 0.875 11.25 2 9 C1.34 8.67 0.68 8.34 0 8 C0 7.34 0 6.68 0 6 C0.66 6 1.32 6 2 6 C2 5.34 2 4.68 2 4 C1.34 4 0.68 4 0 4 C0 2.68 0 1.36 0 0 Z " fill="#242947" transform="translate(227,504)"/>
<path d="M0 0 C2.31 0 4.62 0 7 0 C5.86728288 3.39815137 4.8090686 4.28644916 2.125 6.5625 C1.07699219 7.46162109 1.07699219 7.46162109 0.0078125 8.37890625 C-2 10 -2 10 -5 12 C-5 11.01 -5 10.02 -5 9 C-4.34 9 -3.68 9 -3 9 C-2.87625 8.195625 -2.7525 7.39125 -2.625 6.5625 C-2.41875 5.716875 -2.2125 4.87125 -2 4 C-1.34 3.67 -0.68 3.34 0 3 C0 2.01 0 1.02 0 0 Z " fill="#4953C2" transform="translate(163,484)"/>
<path d="M0 0 C0 0.66 0 1.32 0 2 C-0.59167969 2.24234375 -1.18335938 2.4846875 -1.79296875 2.734375 C-10.45994087 6.3610137 -10.45994087 6.3610137 -15.8125 13.75 C-16.204375 14.8225 -16.59625 15.895 -17 17 C-17.66 17 -18.32 17 -19 17 C-18.18460625 11.13935739 -15.35590973 7.8567112 -11 4 C-7.59872993 2.00806533 -4.01187967 0 0 0 Z " fill="#4B54B3" transform="translate(804,522)"/>
<path d="M0 0 C0.66 0.33 1.32 0.66 2 1 C0.8553125 1.8971875 0.8553125 1.8971875 -0.3125 2.8125 C-5.0523057 6.52646085 -5.0523057 6.52646085 -7 12 C-7.66 12 -8.32 12 -9 12 C-9 12.99 -9 13.98 -9 15 C-7.02 15.495 -7.02 15.495 -5 16 C-6.9375 16.5625 -6.9375 16.5625 -9 17 C-10 16 -10 16 -10.375 13.375 C-9.87262131 8.85359177 -8.05317319 6.29377651 -5 3 C-2.3125 1 -2.3125 1 0 0 Z " fill="#454DB0" transform="translate(798,493)"/>
<path d="M0 0 C1.05609899 3.16829698 1.13055309 3.98519175 0 7 C-0.97753644 8.02196992 -1.9805881 9.01979625 -3 10 C-3.7734375 11.3303125 -3.7734375 11.3303125 -4.5625 12.6875 C-5.2740625 13.8321875 -5.2740625 13.8321875 -6 15 C-6.66 15 -7.32 15 -8 15 C-6.8905928 11.51329166 -5.73662334 8.22515763 -4 5 C-3.34 5 -2.68 5 -2 5 C-1.855625 4.360625 -1.71125 3.72125 -1.5625 3.0625 C-1 1 -1 1 0 0 Z " fill="#3B4DD7" transform="translate(768,545)"/>
<path d="M0 0 C0.33 0.99 0.66 1.98 1 3 C1.66 3 2.32 3 3 3 C2.731875 3.515625 2.46375 4.03125 2.1875 4.5625 C0.67650593 7.66401415 -0.65572726 10.82262806 -2 14 C-2.66 14 -3.32 14 -4 14 C-4 12.02 -4 10.04 -4 8 C-3.34 7.67 -2.68 7.34 -2 7 C-1.67 6.01 -1.34 5.02 -1 4 C-1.66 4 -2.32 4 -3 4 C-3 3.34 -3 2.68 -3 2 C-2.01 1.34 -1.02 0.68 0 0 Z " fill="#4452BB" transform="translate(885,508)"/>
<path d="M0 0 C0.83265381 0.00523682 1.66530762 0.01047363 2.52319336 0.01586914 C3.42231445 0.0190918 4.32143555 0.02231445 5.24780273 0.02563477 C6.66609375 0.03820312 6.66609375 0.03820312 8.11303711 0.05102539 C9.06243164 0.05553711 10.01182617 0.06004883 10.98999023 0.06469727 C13.34356776 0.07652429 15.69702188 0.09300514 18.05053711 0.11352539 C17.73803711 2.48852539 17.73803711 2.48852539 17.05053711 5.11352539 C16.06053711 5.77352539 15.07053711 6.43352539 14.05053711 7.11352539 C14.55657703 4.94478287 15.05037524 3.11384912 16.05053711 1.11352539 C13.29902974 1.20063643 10.55072078 1.30752154 7.80053711 1.42602539 C7.02323242 1.44858398 6.24592773 1.47114258 5.44506836 1.49438477 C1.11074617 1.69813495 -1.72987394 1.88528163 -4.94946289 5.11352539 C-2.54694377 0.14831921 -2.54694377 0.14831921 0 0 Z " fill="#4149AF" transform="translate(761.949462890625,489.886474609375)"/>
<path d="M0 0 C2.76213965 2.37485552 2.97925681 2.79602527 3.375 6.6875 C3.2232624 11.23119801 1.77986072 14.84699165 0 19 C-1.35862973 15.09519751 -0.89469712 11.2898224 -0.5625 7.25 C-0.48418945 6.20392578 -0.48418945 6.20392578 -0.40429688 5.13671875 C-0.27525928 3.42403797 -0.13840386 1.71194934 0 0 Z " fill="#3C49B9" transform="translate(171,466)"/>
<path d="M0 0 C0 1.32 0 2.64 0 4 C-1.2065625 4.4640625 -1.2065625 4.4640625 -2.4375 4.9375 C-7.51631532 7.4221003 -11.1743391 11.94479945 -15 16 C-15.66 15.67 -16.32 15.34 -17 15 C-14.54976242 12.49195282 -12.08852402 9.9949924 -9.625 7.5 C-8.57699219 6.42685547 -8.57699219 6.42685547 -7.5078125 5.33203125 C-6.8375 4.65527344 -6.1671875 3.97851562 -5.4765625 3.28125 C-4.85861816 2.65283203 -4.24067383 2.02441406 -3.60400391 1.37695312 C-2 0 -2 0 0 0 Z " fill="#4A53B7" transform="translate(159,464)"/>
<path d="M0 0 C3.465 1.485 3.465 1.485 7 3 C7 2.01 7 1.02 7 0 C7.99 0.33 8.98 0.66 10 1 C8.35 2.98 6.7 4.96 5 7 C2.37812506 5.95125002 1.20628639 5.35068687 -0.25 2.875 C-0.4975 2.25625 -0.745 1.6375 -1 1 C-0.67 0.67 -0.34 0.34 0 0 Z " fill="#4550D3" transform="translate(217,489)"/>
<path d="M0 0 C6.82861992 1.24156726 11.43582577 3.90414953 17 8 C16.34 8.66 15.68 9.32 15 10 C15 9.34 15 8.68 15 8 C13.02 7.34 11.04 6.68 9 6 C9 5.34 9 4.68 9 4 C7.02 4.33 5.04 4.66 3 5 C3 4.01 3 3.02 3 2 C2.01 2 1.02 2 0 2 C0 1.34 0 0.68 0 0 Z " fill="#4C55B5" transform="translate(829,488)"/>
<path d="M0 0 C1.65 0 3.3 0 5 0 C5 0.99 5 1.98 5 3 C5.66 3 6.32 3 7 3 C6.67 4.32 6.34 5.64 6 7 C5.67 6.34 5.34 5.68 5 5 C4.01 5.66 3.02 6.32 2 7 C1.67 6.01 1.34 5.02 1 4 C0.34 4 -0.32 4 -1 4 C-0.67 2.68 -0.34 1.36 0 0 Z " fill="#3B4CC3" transform="translate(827,554)"/>
<path d="M0 0 C11.52164009 -0.55353075 11.52164009 -0.55353075 17 3 C15.02 3.99 15.02 3.99 13 5 C13 4.34 13 3.68 13 3 C11.453125 3.061875 11.453125 3.061875 9.875 3.125 C6.13170373 3.00424851 3.46265453 2.35127982 0 1 C0 0.67 0 0.34 0 0 Z " fill="#D6DCF5" transform="translate(814,503)"/>
<path d="M0 0 C2.97 1.65 5.94 3.3 9 5 C8.67 5.66 8.34 6.32 8 7 C1.47692308 6.38461538 1.47692308 6.38461538 -0.9375 4.4375 C-1.288125 3.963125 -1.63875 3.48875 -2 3 C-1 1 -1 1 0 0 Z " fill="#E0E0E0" transform="translate(422,559)"/>
<path d="M0 0 C1.32 0.33 2.64 0.66 4 1 C3.67 1.66 3.34 2.32 3 3 C4.32 3 5.64 3 7 3 C6.34 4.98 5.68 6.96 5 9 C2.5 7.3125 2.5 7.3125 0 5 C-0.3125 2.25 -0.3125 2.25 0 0 Z " fill="#23294B" transform="translate(136,537)"/>
<path d="M0 0 C0.33 0.99 0.66 1.98 1 3 C0.67 3.66 0.34 4.32 0 5 C0.99 5.66 1.98 6.32 3 7 C3 7.66 3 8.32 3 9 C3.66 9.66 4.32 10.32 5 11 C-0.53846154 10.38461538 -0.53846154 10.38461538 -2.875 8.4375 C-3.24625 7.963125 -3.6175 7.48875 -4 7 C-3.34 6.67 -2.68 6.34 -2 6 C-2 5.34 -2 4.68 -2 4 C-2.99 3.67 -3.98 3.34 -5 3 C-4.360625 2.87625 -3.72125 2.7525 -3.0625 2.625 C-2.0415625 2.315625 -2.0415625 2.315625 -1 2 C-0.67 1.34 -0.34 0.68 0 0 Z " fill="#D8D6D7" transform="translate(573,510)"/>
<path d="M0 0 C0 2.97 0 5.94 0 9 C-2.97 8.505 -2.97 8.505 -6 8 C-6 5 -6 5 -3.5625 2.3125 C-1 0 -1 0 0 0 Z " fill="#E3E3E3" transform="translate(695,557)"/>
<path d="M0 0 C1.67542976 0.28604898 3.34385343 0.61781233 5 1 C5.66 3.97 6.32 6.94 7 10 C9.97 10.495 9.97 10.495 13 11 C13 11.33 13 11.66 13 12 C10.69 12.33 8.38 12.66 6 13 C4.64560332 10.29120665 4.93498549 7.99066732 5 5 C4.34 5 3.68 5 3 5 C3 4.01 3 3.02 3 2 C1.68 1.67 0.36 1.34 -1 1 C-0.67 0.67 -0.34 0.34 0 0 Z " fill="#3C4BB4" transform="translate(829,552)"/>
<path d="M0 0 C1.76923828 0.01353516 1.76923828 0.01353516 3.57421875 0.02734375 C4.47785156 0.03894531 5.38148438 0.05054688 6.3125 0.0625 C6.6425 1.7125 6.9725 3.3625 7.3125 5.0625 C6.6525 3.7425 5.9925 2.4225 5.3125 1.0625 C0.6925 1.7225 -3.9275 2.3825 -8.6875 3.0625 C-9.0175 2.4025 -9.3475 1.7425 -9.6875 1.0625 C-6.26517028 -0.07827657 -3.60076783 -0.03565117 0 0 Z M3.3125 3.0625 C5.3125 4.0625 5.3125 4.0625 5.3125 4.0625 Z " fill="#DFE3F3" transform="translate(820.6875,532.9375)"/>
<path d="M0 0 C0 3 0 3 -2.4375 5.5 C-3.283125 6.325 -4.12875 7.15 -5 8 C-5.33 8.99 -5.66 9.98 -6 11 C-8.4375 12.75 -8.4375 12.75 -11 14 C-11.66 13.67 -12.32 13.34 -13 13 C-8.71 8.71 -4.42 4.42 0 0 Z " fill="#3A41B2" transform="translate(138,483)"/>
<path d="M0 0 C0 3 0 3 -1.3125 4.60546875 C-1.869375 5.12753906 -2.42625 5.64960938 -3 6.1875 C-3.556875 6.71730469 -4.11375 7.24710937 -4.6875 7.79296875 C-5.120625 8.19128906 -5.55375 8.58960938 -6 9 C-6.99 8.67 -7.98 8.34 -9 8 C-8.9375 6.1875 -8.9375 6.1875 -8 4 C-4.5 2.3125 -4.5 2.3125 -1 1 C-0.67 0.67 -0.34 0.34 0 0 Z " fill="#E1E7F9" transform="translate(212,471)"/>
<path d="M0 0 C4.52615993 3.67832017 8.39424999 7.41086363 12 12 C9.6875 11.8125 9.6875 11.8125 7 11 C5.5 8.75 5.5 8.75 4 6 C2.37163262 4.2958946 0.71230248 2.61974559 -1 1 C-0.67 0.67 -0.34 0.34 0 0 Z " fill="#191D3E" transform="translate(221,530)"/>
<path d="M0 0 C-3.85940746 3.85940746 -10.35985738 3.94344336 -15.625 4.125 C-16.40875 4.08375 -17.1925 4.0425 -18 4 C-17.67 3.34 -17.34 2.68 -17 2 C-15.00390625 1.62109375 -15.00390625 1.62109375 -12.5625 1.4375 C-8.11454326 1.08766071 -4.54605561 -0.0988273 0 0 Z " fill="#3D46B0" transform="translate(832,529)"/>
<path d="M0 0 C0.33 0.66 0.66 1.32 1 2 C0.67 2.99 0.34 3.98 0 5 C-0.99 5 -1.98 5 -3 5 C-3.226875 5.556875 -3.45375 6.11375 -3.6875 6.6875 C-5.35896766 9.63246684 -7.55276352 11.68156544 -10 14 C-10.66 13.67 -11.32 13.34 -12 13 C-11.55269531 12.56429688 -11.10539063 12.12859375 -10.64453125 11.6796875 C-6.85478464 7.94650427 -3.33540417 4.143987 0 0 Z " fill="#D8E1FB" transform="translate(777,496)"/>
<path d="M0 0 C2.0625 0.4375 2.0625 0.4375 4 1 C4.33 2.65 4.66 4.3 5 6 C1.37673261 7.2077558 0.35853631 6.54311128 -3 5 C-1.125 1.125 -1.125 1.125 0 0 Z " fill="#ECEBE9" transform="translate(578,505)"/>
<path d="M0 0 C0.99 0.495 0.99 0.495 2 1 C2 1.66 2 2.32 2 3 C4.67643957 3.89214652 6.25384378 4.13540211 9 4.125 C10.0209375 4.12886719 10.0209375 4.12886719 11.0625 4.1328125 C13.21874781 4.06631126 13.21874781 4.06631126 16 3 C16 3.99 16 4.98 16 6 C12.46905698 7.20220203 9.87101018 6.79532349 6.25 6.0625 C5.26515625 5.86785156 4.2803125 5.67320312 3.265625 5.47265625 C2.51796875 5.31667969 1.7703125 5.16070312 1 5 C0.67 3.35 0.34 1.7 0 0 Z " fill="#DAE0F6" transform="translate(245,489)"/>
<path d="M0 0 C2.97 0 5.94 0 9 0 C9 1.32 9 2.64 9 4 C5.37471432 4.20140476 3.13498292 3.85776765 0 2 C0 1.34 0 0.68 0 0 Z " fill="#4254C9" transform="translate(896,502)"/>
<path d="M0 0 C0.66 0.66 1.32 1.32 2 2 C1.96712417 4.72869407 1.43602229 7.2966618 1 10 C-0.32 10.33 -1.64 10.66 -3 11 C-2.44894091 7.0507432 -1.61064629 3.65079826 0 0 Z " fill="#E1E6F1" transform="translate(780,490)"/>
<path d="M0 0 C3.63905562 1.2888322 4.88792758 2.89439137 7 6.0625 C6.01 6.3925 5.02 6.7225 4 7.0625 C3.34 5.7425 2.68 4.4225 2 3.0625 C-1.19902639 2.97363816 -3.92677456 3.15191469 -7 4.0625 C-4.70531667 1.15001731 -3.79653238 0.07909442 0 0 Z " fill="#D6DFFA" transform="translate(238,482.9375)"/>
<path d="M0 0 C0.66 0.66 1.32 1.32 2 2 C1.38125 2.0825 0.7625 2.165 0.125 2.25 C-2.18437567 2.81258459 -2.18437567 2.81258459 -3.25 5.0625 C-3.4975 5.701875 -3.745 6.34125 -4 7 C-5.37562854 5.71034824 -6.70766393 4.37310707 -8 3 C-8 2.34 -8 1.68 -8 1 C-6.865625 1.020625 -5.73125 1.04125 -4.5625 1.0625 C-1.18424326 1.41577477 -1.18424326 1.41577477 0 0 Z " fill="#D9DCDB" transform="translate(206,472)"/>
<path d="M0 0 C3.58243646 3.38341221 6.64295527 6.64853282 9 11 C8.75 13.875 8.75 13.875 8 16 C6 14 6 14 5.6875 11.8125 C4.84508916 8.36627385 3.22078704 6.3132435 1.05859375 3.55078125 C0 2 0 2 0 0 Z " fill="#4A55B6" transform="translate(773,549)"/>
<path d="M0 0 C3.94875582 1.31625194 4.54992713 3.05365398 6.6875 6.5625 C7.31011719 7.57441406 7.93273437 8.58632813 8.57421875 9.62890625 C9.04472656 10.41136719 9.51523437 11.19382812 10 12 C6.68532105 10.46593371 4.96055229 9.13688367 3 6 C3 5.34 3 4.68 3 4 C1.68 3.34 0.36 2.68 -1 2 C-0.67 1.34 -0.34 0.68 0 0 Z " fill="#DBE4FA" transform="translate(748,547)"/>
<path d="M0 0 C0.1875 2.375 0.1875 2.375 0 5 C-0.99 5.66 -1.98 6.32 -3 7 C-3 6.01 -3 5.02 -3 4 C-4.32 3.67 -5.64 3.34 -7 3 C-7 2.34 -7 1.68 -7 1 C-4.53721199 -0.231394 -2.7204945 -0.07159196 0 0 Z " fill="#242E52" transform="translate(256,553)"/>
<path d="M0 0 C3.21524305 1.40844718 5.32183868 3.10344786 7.75 5.625 C8.67039063 6.57246094 8.67039063 6.57246094 9.609375 7.5390625 C10.29773438 8.26222656 10.29773438 8.26222656 11 9 C10.67 9.99 10.34 10.98 10 12 C9.52949219 11.43410156 9.05898437 10.86820313 8.57421875 10.28515625 C7.95160156 9.55167969 7.32898438 8.81820312 6.6875 8.0625 C6.07261719 7.33160156 5.45773438 6.60070312 4.82421875 5.84765625 C3.04024481 3.76179634 3.04024481 3.76179634 0 3 C0 2.01 0 1.02 0 0 Z " fill="#1E223F" transform="translate(154,528)"/>
<path d="M0 0 C0 4.10202215 -1.4911355 5.81306402 -4 9 C-6.75 10.375 -6.75 10.375 -9 11 C-9 10.34 -9 9.68 -9 9 C-8.34 9 -7.68 9 -7 9 C-6.6596875 8.1646875 -6.6596875 8.1646875 -6.3125 7.3125 C-4.64103234 4.36753316 -2.44723648 2.31843456 0 0 Z " fill="#3C45B1" transform="translate(742,510)"/>
<path d="M0 0 C0 2.62113708 -0.31292445 4.50935112 -1 7 C-1.928125 7.12375 -1.928125 7.12375 -2.875 7.25 C-5.18437567 7.81258459 -5.18437567 7.81258459 -6.25 10.0625 C-6.4975 10.701875 -6.745 11.34125 -7 12 C-7.66 11.01 -8.32 10.02 -9 9 C-6.03 6.03 -3.06 3.06 0 0 Z " fill="#E2E9FB" transform="translate(230,487)"/>
<path d="M0 0 C1.32 0 2.64 0 4 0 C3.64950425 3.24208567 3.43778819 4.61527704 0.9375 6.8125 C0.298125 7.204375 -0.34125 7.59625 -1 8 C-1.625 5.125 -1.625 5.125 -2 2 C-1.34 1.34 -0.68 0.68 0 0 Z " fill="#DEE6EE" transform="translate(755,488)"/>
<path d="M0 0 C0.33 0.66 0.66 1.32 1 2 C-0.11799986 3.33920838 -1.24461897 4.67122556 -2.375 6 C-3.00148437 6.7425 -3.62796875 7.485 -4.2734375 8.25 C-4.84320313 8.8275 -5.41296875 9.405 -6 10 C-6.66 10 -7.32 10 -8 10 C-8.33 10.66 -8.66 11.32 -9 12 C-9 9 -9 9 -7.03125 6.73828125 C-5.77828125 5.53751953 -5.77828125 5.53751953 -4.5 4.3125 C-3.6646875 3.50425781 -2.829375 2.69601562 -1.96875 1.86328125 C-1.3190625 1.24839844 -0.669375 0.63351562 0 0 Z " fill="#E6EEFB" transform="translate(163,491)"/>
<path d="M0 0 C0.99 0.33 1.98 0.66 3 1 C0.42215154 3.64752004 -1.91648098 5.94432065 -5 8 C-5.99 7.67 -6.98 7.34 -8 7 C-7.34 6.67 -6.68 6.34 -6 6 C-5.67 5.01 -5.34 4.02 -5 3 C-3.67696283 2.6278958 -2.34262065 2.29369827 -1 2 C-0.67 1.34 -0.34 0.68 0 0 Z " fill="#DFDFDF" transform="translate(425,490)"/>
<path d="M0 0 C3.96 0 7.92 0 12 0 C10.68 1.32 9.36 2.64 8 4 C2.25 2.25 2.25 2.25 0 0 Z " fill="#2F375A" transform="translate(167,458)"/>
<path d="M0 0 C5.94 0 11.88 0 18 0 C18.33 1.65 18.66 3.3 19 5 C18.51080078 4.27876953 18.51080078 4.27876953 18.01171875 3.54296875 C14.92602726 1.17627334 11.55844033 1.42700473 7.8125 1.3125 C7.06291016 1.27833984 6.31332031 1.24417969 5.54101562 1.20898438 C3.69453162 1.12665706 1.84729006 1.06164719 0 1 C0 0.67 0 0.34 0 0 Z " fill="#D9E0FE" transform="translate(715,458)"/>
<path d="M0 0 C4.2742558 1.5830577 6.26531794 4.50568404 9 8 C3.25 6.25 3.25 6.25 1 4 C1.33 3.34 1.66 2.68 2 2 C1.34 2 0.68 2 0 2 C0 1.34 0 0.68 0 0 Z " fill="#EEEFF9" transform="translate(130,537)"/>
<path d="M0 0 C-7.4 6 -7.4 6 -11 6 C-11 5.34 -11 4.68 -11 4 C-10.34 4 -9.68 4 -9 4 C-9 3.34 -9 2.68 -9 2 C-5.86501708 0.14223235 -3.62528568 -0.20140476 0 0 Z " fill="#DAE0F9" transform="translate(803,490)"/>
<path d="M0 0 C0.66 0.33 1.32 0.66 2 1 C-0.31 3.31 -2.62 5.62 -5 8 C-5.33 7.34 -5.66 6.68 -6 6 C-6.66 5.67 -7.32 5.34 -8 5 C-7.236875 4.54625 -6.47375 4.0925 -5.6875 3.625 C-3.76367186 2.46175508 -1.87058776 1.2470585 0 0 Z " fill="#E4E7FA" transform="translate(147,472)"/>
<path d="M0 0 C3.36591866 1.44253657 5.51047079 3.33264727 8 6 C6.02 6.66 4.04 7.32 2 8 C1.33333333 5.33333333 0.66666667 2.66666667 0 0 Z " fill="#E0E0E0" transform="translate(324,552)"/>
<path d="M0 0 C1.17539996 0.92652701 2.34010577 1.86663387 3.5 2.8125 C4.1496875 3.33457031 4.799375 3.85664062 5.46875 4.39453125 C7 6 7 6 7 9 C6.030625 8.34 5.06125 7.68 4.0625 7 C1.4700747 4.90886852 1.4700747 4.90886852 0 5 C0 3.35 0 1.7 0 0 Z " fill="#D6D7E2" transform="translate(209,549)"/>
<path d="M0 0 C2.31 0.66 4.62 1.32 7 2 C7.33 3.98 7.66 5.96 8 8 C6.85073734 7.04578192 5.70569459 6.08647955 4.5625 5.125 C3.92441406 4.59132813 3.28632813 4.05765625 2.62890625 3.5078125 C1 2 1 2 0 0 Z " fill="#181C39" transform="translate(147,551)"/>
<path d="M0 0 C0.89203125 0.01804687 1.7840625 0.03609375 2.703125 0.0546875 C3.71632813 0.08949219 3.71632813 0.08949219 4.75 0.125 C1.7030371 1.81933918 -1.07821466 2.61967112 -4.5 3.25 C-5.83804688 3.50136719 -5.83804688 3.50136719 -7.203125 3.7578125 C-7.87859375 3.87898437 -8.5540625 4.00015625 -9.25 4.125 C-9.25 3.465 -9.25 2.805 -9.25 2.125 C-6.03817851 0.21891902 -3.71117397 -0.09766247 0 0 Z " fill="#E1E7FC" transform="translate(809.25,518.875)"/>
<path d="M0 0 C0.66 0.33 1.32 0.66 2 1 C1.525625 2.010625 1.05125 3.02125 0.5625 4.0625 C-0.9936328 7.65922205 -1.6012946 11.09268709 -2 15 C-2.33 15 -2.66 15 -3 15 C-3.55353075 4.44191344 -3.55353075 4.44191344 0 0 Z " fill="#4D57B4" transform="translate(180,503)"/>
<path d="M0 0 C1.65 0.33 3.3 0.66 5 1 C1.23312546 4.93809611 1.23312546 4.93809611 -1.9453125 5.09765625 C-3.96354167 5.06510417 -5.98177083 5.03255208 -8 5 C-8 4.67 -8 4.34 -8 4 C-5.36 3.67 -2.72 3.34 0 3 C0 2.01 0 1.02 0 0 Z " fill="#545CB4" transform="translate(258,489)"/>
<path d="M0 0 C1.98 0 3.96 0 6 0 C4.02 2.31 2.04 4.62 0 7 C-1 3 -1 3 0 0 Z " fill="#DAE0F4" transform="translate(134,481)"/>
<path d="M0 0 C0.99 0.33 1.98 0.66 3 1 C0.2180632 4.27286682 -3.27954067 5.96427697 -7 8 C-7.33 7.01 -7.66 6.02 -8 5 C-5.35261084 3.5393715 -4.10551666 3 -1 3 C-0.67 2.01 -0.34 1.02 0 0 Z " fill="#D8DAF0" transform="translate(165,456)"/>
<path d="M0 0 C3 0 3 0 5 1 C1.34666857 3.63379708 -1.48521602 5.46884894 -6 6 C-6.33 5.34 -6.66 4.68 -7 4 C-5.02 3.67 -3.04 3.34 -1 3 C-0.67 2.01 -0.34 1.02 0 0 Z " fill="#404AAE" transform="translate(824,560)"/>
<path d="M0 0 C0 0.66 0 1.32 0 2 C-0.66 2 -1.32 2 -2 2 C-2.061875 2.61875 -2.12375 3.2375 -2.1875 3.875 C-3 6 -3 6 -5.5625 7.25 C-6.366875 7.4975 -7.17125 7.745 -8 8 C-3.45945946 0 -3.45945946 0 0 0 Z " fill="#DFE4F9" transform="translate(892,510)"/>
<path d="M0 0 C0.66 0.33 1.32 0.66 2 1 C1.34 3.31 0.68 5.62 0 8 C-0.33 7.34 -0.66 6.68 -1 6 C-1.66 6 -2.32 6 -3 6 C-3 6.66 -3 7.32 -3 8 C-3.66 8 -4.32 8 -5 8 C-3.8141763 4.62496331 -2.72426311 2.35277269 0 0 Z " fill="#D5DAF4" transform="translate(809,505)"/>
<path d="M0 0 C-1.31224548 3.93673644 -2.91910327 6.22719294 -6 9 C-5.38983051 3.50847458 -5.38983051 3.50847458 -3.5625 1.125 C-2 0 -2 0 0 0 Z " fill="#3E46DC" transform="translate(125,500)"/>
<path d="M0 0 C0.99 0.33 1.98 0.66 3 1 C2.74438677 3.3431213 2.40729228 5.67843403 2 8 C1.01 8.495 1.01 8.495 0 9 C-1.25664978 6.09399739 -2 4.20395416 -2 1 C-1.34 0.67 -0.68 0.34 0 0 Z " fill="#DADEEF" transform="translate(850,497)"/>
<path d="M0 0 C-0.66 0 -1.32 0 -2 0 C-2 1.32 -2 2.64 -2 4 C-2.99 4.33 -3.98 4.66 -5 5 C-5 4.34 -5 3.68 -5 3 C-5.99 2.67 -6.98 2.34 -8 2 C-6.14210462 -1.71579076 -3.44525918 -1.06921837 0 0 Z " fill="#4954BB" transform="translate(900,490)"/>
<path d="M0 0 C2 1 2 1 2 1 Z M-2 1 C-1.34 1.33 -0.68 1.66 0 2 C-0.33 2.66 -0.66 3.32 -1 4 C-0.01 3.67 0.98 3.34 2 3 C2 3.99 2 4.98 2 6 C1.01 6.33 0.02 6.66 -1 7 C-2.32 5.68 -3.64 4.36 -5 3 C-4.01 2.34 -3.02 1.68 -2 1 Z " fill="#E4E4E4" transform="translate(693,489)"/>
<path d="M0 0 C0.66 0 1.32 0 2 0 C2 0.66 2 1.32 2 2 C2.66 2 3.32 2 4 2 C4 2.66 4 3.32 4 4 C4.66 4 5.32 4 6 4 C6 6.64 6 9.28 6 12 C5.34 11.67 4.68 11.34 4 11 C3.66666667 9.33333333 3.33333333 7.66666667 3 6 C2.04605164 3.97762948 1.05464649 1.9717304 0 0 Z " fill="#DBE1F7" transform="translate(777,553)"/>
<path d="M0 0 C0 0.66 0 1.32 0 2 C-3.3 2 -6.6 2 -10 2 C-10 1.34 -10 0.68 -10 0 C-6.30581799 -1.231394 -3.7943739 -0.64432764 0 0 Z " fill="#C3C3C3" transform="translate(452,549)"/>
<path d="M0 0 C1.66666667 1.66666667 3.33333333 3.33333333 5 5 C4.34 6.32 3.68 7.64 3 9 C1.5 7.875 1.5 7.875 0 6 C-0.1875 2.8125 -0.1875 2.8125 0 0 Z " fill="#CECECE" transform="translate(571,541)"/>
<path d="M0 0 C1.32 0 2.64 0 4 0 C2.44499019 3.81684226 -0.03595495 6.19195732 -3 9 C-3.66 8.67 -4.32 8.34 -5 8 C-4.0409375 7.13375 -4.0409375 7.13375 -3.0625 6.25 C-1.01776132 4.01937599 -0.41794801 2.92563609 0 0 Z " fill="#E2EAFD" transform="translate(746,500)"/>
<path d="M0 0 C-1 3 -1 3 -3 4 C-4.99960012 4.039992 -7.00047242 4.04346799 -9 4 C-4.5 0 -4.5 0 0 0 Z " fill="#DADEE6" transform="translate(253,563)"/>
<path d="M0 0 C0.33 1.32 0.66 2.64 1 4 C-0.32 4.99 -1.64 5.98 -3 7 C-3.99 5.68 -4.98 4.36 -6 3 C-2.25 0 -2.25 0 0 0 Z " fill="#DCDCDC" transform="translate(601,559)"/>
<path d="M0 0 C0 0.66 0 1.32 0 2 C-0.66 2 -1.32 2 -2 2 C-2 2.66 -2 3.32 -2 4 C-3.98 4.33 -5.96 4.66 -8 5 C-7.67 4.01 -7.34 3.02 -7 2 C-4.56723614 0.81480735 -2.71982714 0 0 0 Z " fill="#E9E9E9" transform="translate(592,547)"/>
<path d="M0 0 C0.66 0.33 1.32 0.66 2 1 C1.0409375 2.0209375 1.0409375 2.0209375 0.0625 3.0625 C-2.3258493 6.46408839 -2.67877153 8.90433701 -3 13 C-3.33 13 -3.66 13 -4 13 C-4.10824843 11.3973218 -4.18570645 9.79254252 -4.25 8.1875 C-4.29640625 7.29417969 -4.3428125 6.40085937 -4.390625 5.48046875 C-4 3 -4 3 -1.984375 1.17578125 C-1.00210938 0.59376953 -1.00210938 0.59376953 0 0 Z " fill="#3A47A5" transform="translate(806,535)"/>
<path d="M0 0 C4.75 0.75 4.75 0.75 7 3 C5.02 3.99 5.02 3.99 3 5 C1.68 4.01 0.36 3.02 -1 2 C-0.67 1.34 -0.34 0.68 0 0 Z " fill="#E0E0E0" transform="translate(393,532)"/>
<path d="M0 0 C2.96404505 2.80804268 5.44499019 5.18315774 7 9 C6.01 9 5.02 9 4 9 C0.8217901 5.7309841 0 4.67834007 0 0 Z " fill="#4853B7" transform="translate(757,527)"/>
<path d="M0 0 C0.66 0.99 1.32 1.98 2 3 C-0.31 4.65 -2.62 6.3 -5 8 C-5.66 7.67 -6.32 7.34 -7 7 C-4.69 4.69 -2.38 2.38 0 0 Z " fill="#E3EAF8" transform="translate(152,502)"/>
<path d="M0 0 C0.99 0.33 1.98 0.66 3 1 C1.625 2.5 1.625 2.5 0 4 C-0.66 4 -1.32 4 -2 4 C-2.66 5.65 -3.32 7.3 -4 9 C-4.33 9 -4.66 9 -5 9 C-5 7.35 -5 5.7 -5 4 C-4.0409375 3.8453125 -4.0409375 3.8453125 -3.0625 3.6875 C-2.381875 3.460625 -1.70125 3.23375 -1 3 C-0.67 2.01 -0.34 1.02 0 0 Z " fill="#D4DBF6" transform="translate(182,499)"/>
<path d="M0 0 C0.66 0.66 1.32 1.32 2 2 C-0.64 3.98 -3.28 5.96 -6 8 C-6 6.68 -6 5.36 -6 4 C-4.68 3.67 -3.36 3.34 -2 3 C-2 2.34 -2 1.68 -2 1 C-1.34 0.67 -0.68 0.34 0 0 Z " fill="#D6DBF9" transform="translate(225,459)"/>
<path d="M0 0 C1.67542976 0.28604898 3.34385343 0.61781233 5 1 C5.33 1.99 5.66 2.98 6 4 C4.02 4.33 2.04 4.66 0 5 C-0.5625 3.0625 -0.5625 3.0625 -1 1 C-0.67 0.67 -0.34 0.34 0 0 Z " fill="#E0E5EE" transform="translate(790,562)"/>
<path d="M0 0 C2.31 0.33 4.62 0.66 7 1 C7 1.66 7 2.32 7 3 C4.69 3.33 2.38 3.66 0 4 C0 2.68 0 1.36 0 0 Z " fill="#4754C7" transform="translate(864,561)"/>
<path d="M0 0 C3 3 6 6 9 9 C6 9 6 9 4.17578125 7.46875 C3.56089844 6.8190625 2.94601563 6.169375 2.3125 5.5 C1.68988281 4.8503125 1.06726563 4.200625 0.42578125 3.53125 C-0.04472656 3.0259375 -0.51523438 2.520625 -1 2 C-0.67 1.34 -0.34 0.68 0 0 Z " fill="#141832" transform="translate(211,548)"/>
<path d="M0 0 C-1.24976756 3.65316671 -1.67098753 4.78065836 -5 7 C-5 3 -5 3 -3.625 1.25 C-2 0 -2 0 0 0 Z " fill="#D5DEF3" transform="translate(810,535)"/>
<path d="M0 0 C0.77321882 2.98241547 1.41196203 5.97580475 2 9 C0.68 8.67 -0.64 8.34 -2 8 C-1.67 6.68 -1.34 5.36 -1 4 C-1.66 3.67 -2.32 3.34 -3 3 C-2.01 2.01 -1.02 1.02 0 0 Z " fill="#3846BA" transform="translate(886,495)"/>
<path d="M0 0 C0.66 0.66 1.32 1.32 2 2 C-1.465 4.97 -1.465 4.97 -5 8 C-4.67 6.35 -4.34 4.7 -4 3 C-3.34 3 -2.68 3 -2 3 C-2 2.34 -2 1.68 -2 1 C-1.34 0.67 -0.68 0.34 0 0 Z " fill="#D5D9F6" transform="translate(125,493)"/>
<path d="M0 0 C0.99 0.33 1.98 0.66 3 1 C0.25 5.875 0.25 5.875 -2 7 C-1.125 1.125 -1.125 1.125 0 0 Z " fill="#DFE4EB" transform="translate(200,548)"/>
<path d="M0 0 C-1.1858237 3.37503669 -2.27573689 5.64722731 -5 8 C-4.74438677 5.6568787 -4.40729228 3.32156597 -4 1 C-2 0 -2 0 0 0 Z " fill="#D7DBF9" transform="translate(832,540)"/>
<path d="M0 0 C1.9375 0.8125 1.9375 0.8125 4 2 C4.33 2.99 4.66 3.98 5 5 C5.66 5 6.32 5 7 5 C6.67 5.99 6.34 6.98 6 8 C1.125 3.375 1.125 3.375 0 0 Z " fill="#D7DDF6" transform="translate(763,534)"/>
<path d="M0 0 C0.66 0.66 1.32 1.32 2 2 C4.21072977 2.24253813 4.21072977 2.24253813 6.625 2.125 C7.44226563 2.10695313 8.25953125 2.08890625 9.1015625 2.0703125 C9.72804688 2.04710937 10.35453125 2.02390625 11 2 C7.99382731 5.00617269 5.17618402 4.59585316 1 5 C0.67 3.35 0.34 1.7 0 0 Z " fill="#18215E" transform="translate(117,516)"/>
<path d="M0 0 C3.16115776 1.36983503 3.9927092 1.9890638 6 5 C5.67 5.66 5.34 6.32 5 7 C4.34 7 3.68 7 3 7 C0 2.61538462 0 2.61538462 0 0 Z " fill="#3C4AB7" transform="translate(202,511)"/>
<path d="M0 0 C0.99 0.33 1.98 0.66 3 1 C1.38405168 3.04119788 -0.2856382 5.04072937 -2 7 C-2.66 7 -3.32 7 -4 7 C-4 6.01 -4 5.02 -4 4 C-2.68 3.67 -1.36 3.34 0 3 C0 2.01 0 1.02 0 0 Z " fill="#525DBE" transform="translate(224,489)"/>
<path d="M0 0 C0.66 1.32 1.32 2.64 2 4 C2.99 4 3.98 4 5 4 C5 4.66 5 5.32 5 6 C3.68 6.33 2.36 6.66 1 7 C-0.0625 5.1875 -0.0625 5.1875 -1 3 C-0.67 2.01 -0.34 1.02 0 0 Z " fill="#E1E4E2" transform="translate(196,467)"/>
<path d="M0 0 C1.98 1.65 3.96 3.3 6 5 C5.34 5.66 4.68 6.32 4 7 C3.01 6.34 2.02 5.68 1 5 C1 4.34 1 3.68 1 3 C0.34 2.67 -0.32 2.34 -1 2 C-0.67 1.34 -0.34 0.68 0 0 Z " fill="#D9DBE6" transform="translate(150,555)"/>
<path d="M0 0 C0.33 0 0.66 0 1 0 C1 2.64 1 5.28 1 8 C0.01 8.33 -0.98 8.66 -2 9 C-2.33 8.34 -2.66 7.68 -3 7 C-2.06421005 4.64018187 -1.06652192 2.30368736 0 0 Z " fill="#D7D7D7" transform="translate(482,543)"/>
<path d="M0 0 C3.465 1.485 3.465 1.485 7 3 C6.67 3.99 6.34 4.98 6 6 C3.37812506 4.95125002 2.20628639 4.35068687 0.75 1.875 C0.5025 1.25625 0.255 0.6375 0 0 Z " fill="#E2E2E2" transform="translate(340,538)"/>
<path d="M0 0 C1.32 0.33 2.64 0.66 4 1 C2.35 2.98 0.7 4.96 -1 7 C-1.66 6.34 -2.32 5.68 -3 5 C-2.01 4.67 -1.02 4.34 0 4 C0 2.68 0 1.36 0 0 Z " fill="#4E5ABB" transform="translate(154,495)"/>
<path d="M0 0 C1.98 0 3.96 0 6 0 C5.6875 2.375 5.6875 2.375 5 5 C4.01 5.66 3.02 6.32 2 7 C2.50603992 4.83125748 2.99983813 3.00032373 4 1 C2.68 0.67 1.36 0.34 0 0 Z " fill="#4B59B3" transform="translate(774,490)"/>
<path d="M0 0 C0.66 0 1.32 0 2 0 C2 0.99 2 1.98 2 3 C2.66 3 3.32 3 4 3 C3.67 4.32 3.34 5.64 3 7 C2.67 6.34 2.34 5.68 2 5 C1.01 5.66 0.02 6.32 -1 7 C-0.67 4.69 -0.34 2.38 0 0 Z " fill="#5261BF" transform="translate(830,554)"/>
<path d="M0 0 C0.66 0 1.32 0 2 0 C2.33 1.32 2.66 2.64 3 4 C2.01 4.66 1.02 5.32 0 6 C-0.99 5.67 -1.98 5.34 -3 5 C-1.625 2.5 -1.625 2.5 0 0 Z " fill="#D4D2D3" transform="translate(700,548)"/>
<path d="M0 0 C0.66 0.33 1.32 0.66 2 1 C2.66 1 3.32 1 4 1 C4.33 2.98 4.66 4.96 5 7 C3.02 5.35 1.04 3.7 -1 2 C-0.67 1.34 -0.34 0.68 0 0 Z " fill="#111734" transform="translate(142,544)"/>
<path d="M0 0 C0.33 0 0.66 0 1 0 C1.125 6.75 1.125 6.75 0 9 C-0.99 9 -1.98 9 -3 9 C-2.01 6.03 -1.02 3.06 0 0 Z " fill="#464EB1" transform="translate(832,538)"/>
<path d="M0 0 C1.65 1.65 3.3 3.3 5 5 C4.01 6.485 4.01 6.485 3 8 C2.34 7.01 1.68 6.02 1 5 C0.67 5 0.34 5 0 5 C0 3.35 0 1.7 0 0 Z " fill="#313454" transform="translate(223,499)"/>
<path d="M0 0 C2.97 1.98 2.97 1.98 6 4 C5.01 5.485 5.01 5.485 4 7 C3.731875 6.360625 3.46375 5.72125 3.1875 5.0625 C2.11332248 2.66868314 2.11332248 2.66868314 -1 2 C-0.67 1.34 -0.34 0.68 0 0 Z " fill="#292D4D" transform="translate(182,460)"/>
</svg>
